# MagicaVoxel @ Ephtracy

# group
o 

# material
mtllib fullcurveconnection.mtl
usemtl palette

# normals
vn -1 0 0
vn 1 0 0
vn 0 0 1
vn 0 0 -1
vn 0 -1 0
vn 0 1 0

# texcoords
vt 0.958984 0.5
vt 0.962891 0.5
vt 0.982422 0.5
vt 0.986328 0.5
vt 0.994141 0.5

# verts
v -3.2 0.2 2.6
v -3.2 0.2 2.4
v -3.2 0.2 2.2
v -3.2 0.2 0.0999999
v -3.2 0.2 -0.3
v -3.2 0.2 -2.2
v -3.2 0.2 -2.4
v -3.2 0.2 -2.6
v -3.2 0.3 2.6
v -3.2 0.3 2.4
v -3.2 0.3 2.2
v -3.2 0.3 0.0999999
v -3.2 0.3 -0.3
v -3.2 0.3 -2.2
v -3.2 0.3 -2.4
v -3.2 0.3 -2.6
v -3.2 0.4 2.4
v -3.2 0.4 2.2
v -3.2 0.4 -2.2
v -3.2 0.4 -2.4
v -3 0.2 -2.6
v -3 0.2 -2.8
v -3 0.3 -2.4
v -3 0.3 -2.6
v -3 0.3 -2.8
v -3 0.4 -2.4
v -3 0.4 -2.6
v -2.8 0.2 -2.8
v -2.8 0.2 -3
v -2.8 0.3 -2.6
v -2.8 0.3 -2.8
v -2.8 0.3 -3
v -2.8 0.4 -2.6
v -2.8 0.4 -2.8
v -2.6 0.2 -3
v -2.6 0.2 -3.2
v -2.6 0.3 -2.8
v -2.6 0.3 -3
v -2.6 0.3 -3.2
v -2.6 0.4 -2.8
v -2.6 0.4 -3
v -2.4 0.3 -3
v -2.4 0.3 -3.2
v -2.4 0.4 -3
v -2.4 0.4 -3.2
v 0.9 0.2 2.3
v 0.9 0.2 2.2
v 0.9 0.3 2.3
v 0.9 0.3 2.2
v 2.2 0.3 -2.8
v 2.2 0.3 -2.9
v 2.2 0.3 -3.2
v 2.2 0.4 -2.8
v 2.2 0.4 -3.2
v 2.4 0.3 -2.6
v 2.4 0.3 -2.8
v 2.4 0.4 -2.6
v 2.4 0.4 -2.8
v 2.6 0.3 -2.4
v 2.6 0.3 -2.6
v 2.6 0.4 -2.4
v 2.6 0.4 -2.6
v 2.8 0.3 -2.2
v 2.8 0.3 -2.4
v 2.8 0.4 -2.2
v 2.8 0.4 -2.4
v -2.8 0.3 -2.2
v -2.8 0.3 -2.4
v -2.8 0.4 -2.2
v -2.8 0.4 -2.4
v -2.6 0.3 -2.4
v -2.6 0.3 -2.6
v -2.6 0.4 -2.4
v -2.6 0.4 -2.6
v -2.4 0.3 -2.6
v -2.4 0.3 -2.8
v -2.4 0.4 -2.6
v -2.4 0.4 -2.8
v -2.2 0.3 -2.8
v -2.2 0.3 -3.2
v -2.2 0.4 -2.8
v -2.2 0.4 -3.2
v 0.5 0.2 2.3
v 0.5 0.2 2.2
v 0.5 0.3 2.3
v 0.5 0.3 2.2
v 2.4 0.3 -3
v 2.4 0.3 -3.2
v 2.4 0.4 -3
v 2.4 0.4 -3.2
v 2.6 0.2 -3
v 2.6 0.2 -3.2
v 2.6 0.3 -2.8
v 2.6 0.3 -3
v 2.6 0.3 -3.2
v 2.6 0.4 -2.8
v 2.6 0.4 -3
v 2.8 0.2 -2.8
v 2.8 0.2 -3
v 2.8 0.3 -2.6
v 2.8 0.3 -2.8
v 2.8 0.3 -3
v 2.8 0.4 -2.6
v 2.8 0.4 -2.8
v 3 0.2 -2.6
v 3 0.2 -2.8
v 3 0.3 -2.4
v 3 0.3 -2.6
v 3 0.3 -2.8
v 3 0.4 -2.4
v 3 0.4 -2.6
v 3.2 0.2 2.6
v 3.2 0.2 2.4
v 3.2 0.2 2.2
v 3.2 0.2 0.0999999
v 3.2 0.2 -0.3
v 3.2 0.2 -2.2
v 3.2 0.2 -2.4
v 3.2 0.2 -2.6
v 3.2 0.3 2.6
v 3.2 0.3 2.4
v 3.2 0.3 2.2
v 3.2 0.3 0.0999999
v 3.2 0.3 -0.3
v 3.2 0.3 -2.2
v 3.2 0.3 -2.4
v 3.2 0.3 -2.6
v 3.2 0.4 2.4
v 3.2 0.4 2.2
v 3.2 0.4 -2.2
v 3.2 0.4 -2.4
v -3.2 0.2 2.6
v -3.2 0.3 2.6
v 3.2 0.2 2.6
v 3.2 0.3 2.6
v -3.2 0.3 2.4
v -3.2 0.4 2.4
v 3.2 0.3 2.4
v 3.2 0.4 2.4
v 0.5 0.2 2.2
v 0.5 0.3 2.2
v 0.9 0.2 2.2
v 0.9 0.3 2.2
v -3.2 0.3 -2.2
v -3.2 0.4 -2.2
v -2.8 0.3 -2.2
v -2.8 0.4 -2.2
v 2.8 0.3 -2.2
v 2.8 0.4 -2.2
v 3.2 0.3 -2.2
v 3.2 0.4 -2.2
v -2.8 0.3 -2.4
v -2.8 0.4 -2.4
v -2.6 0.3 -2.4
v -2.6 0.4 -2.4
v 2.6 0.3 -2.4
v 2.6 0.4 -2.4
v 2.8 0.3 -2.4
v 2.8 0.4 -2.4
v -2.6 0.3 -2.6
v -2.6 0.4 -2.6
v -2.4 0.3 -2.6
v -2.4 0.4 -2.6
v 2.4 0.3 -2.6
v 2.4 0.4 -2.6
v 2.6 0.3 -2.6
v 2.6 0.4 -2.6
v -2.4 0.3 -2.8
v -2.4 0.4 -2.8
v -2.2 0.3 -2.8
v -2.2 0.4 -2.8
v 2.2 0.3 -2.8
v 2.2 0.4 -2.8
v 2.4 0.3 -2.8
v 2.4 0.4 -2.8
v 0.5 0.2 2.3
v 0.5 0.3 2.3
v 0.9 0.2 2.3
v 0.9 0.3 2.3
v -3.2 0.3 2.2
v -3.2 0.4 2.2
v 3.2 0.3 2.2
v 3.2 0.4 2.2
v -3.2 0.3 -2.4
v -3.2 0.4 -2.4
v -3 0.3 -2.4
v -3 0.4 -2.4
v 3 0.3 -2.4
v 3 0.4 -2.4
v 3.2 0.3 -2.4
v 3.2 0.4 -2.4
v -3.2 0.2 -2.6
v -3.2 0.3 -2.6
v -3 0.2 -2.6
v -3 0.3 -2.6
v -3 0.4 -2.6
v -2.8 0.3 -2.6
v -2.8 0.4 -2.6
v 2.8 0.3 -2.6
v 2.8 0.4 -2.6
v 3 0.2 -2.6
v 3 0.3 -2.6
v 3 0.4 -2.6
v 3.2 0.2 -2.6
v 3.2 0.3 -2.6
v -3 0.2 -2.8
v -3 0.3 -2.8
v -2.8 0.2 -2.8
v -2.8 0.3 -2.8
v -2.8 0.4 -2.8
v -2.6 0.3 -2.8
v -2.6 0.4 -2.8
v 2.6 0.3 -2.8
v 2.6 0.4 -2.8
v 2.8 0.2 -2.8
v 2.8 0.3 -2.8
v 2.8 0.4 -2.8
v 3 0.2 -2.8
v 3 0.3 -2.8
v -2.8 0.2 -3
v -2.8 0.3 -3
v -2.6 0.2 -3
v -2.6 0.3 -3
v -2.6 0.4 -3
v -2.4 0.3 -3
v -2.4 0.4 -3
v 2.4 0.3 -3
v 2.4 0.4 -3
v 2.6 0.2 -3
v 2.6 0.3 -3
v 2.6 0.4 -3
v 2.8 0.2 -3
v 2.8 0.3 -3
v -2.6 0.2 -3.2
v -2.6 0.3 -3.2
v -2.4 0.2 -3.2
v -2.4 0.3 -3.2
v -2.4 0.4 -3.2
v -2.2 0.2 -3.2
v -2.2 0.3 -3.2
v -2.2 0.4 -3.2
v -0.0999999 0.2 -3.2
v -0.0999999 0.3 -3.2
v 0.1 0.2 -3.2
v 0.1 0.3 -3.2
v 2.2 0.2 -3.2
v 2.2 0.3 -3.2
v 2.2 0.4 -3.2
v 2.4 0.2 -3.2
v 2.4 0.3 -3.2
v 2.4 0.4 -3.2
v 2.6 0.2 -3.2
v 2.6 0.3 -3.2
v -3.2 0.2 2.6
v 3.2 0.2 2.6
v -3.2 0.2 2.4
v 3.2 0.2 2.4
v -1.4 0.2 2.3
v -0.9 0.2 2.3
v 0.5 0.2 2.3
v 0.9 0.2 2.3
v 1.2 0.2 2.3
v 1.4 0.2 2.3
v 2.6 0.2 2.3
v 2.8 0.2 2.3
v -3.2 0.2 2.2
v -1.4 0.2 2.2
v -0.9 0.2 2.2
v 0.5 0.2 2.2
v 0.9 0.2 2.2
v 1.2 0.2 2.2
v 1.4 0.2 2.2
v 2.6 0.2 2.2
v 2.8 0.2 2.2
v 3.2 0.2 2.2
v -3.2 0.2 0.0999999
v -2.2 0.2 0.0999999
v 2.2 0.2 0.0999999
v 3.2 0.2 0.0999999
v -3.2 0.2 -0.3
v -2.2 0.2 -0.3
v 2.2 0.2 -0.3
v 3.2 0.2 -0.3
v -3.2 0.2 -2.2
v -2.9 0.2 -2.2
v 2.8 0.2 -2.2
v 3.2 0.2 -2.2
v -3.2 0.2 -2.4
v -3 0.2 -2.4
v -2.9 0.2 -2.4
v -2.6 0.2 -2.4
v -2.2 0.2 -2.4
v -1.8 0.2 -2.4
v -1.4 0.2 -2.4
v -1 0.2 -2.4
v -0.6 0.2 -2.4
v -0.2 0.2 -2.4
v 0.2 0.2 -2.4
v 0.6 0.2 -2.4
v 1 0.2 -2.4
v 1.4 0.2 -2.4
v 1.8 0.2 -2.4
v 2.2 0.2 -2.4
v 2.6 0.2 -2.4
v 2.8 0.2 -2.4
v 3 0.2 -2.4
v 3.2 0.2 -2.4
v -3.2 0.2 -2.6
v -3 0.2 -2.6
v -2.8 0.2 -2.6
v -2.6 0.2 -2.6
v -2.4 0.2 -2.6
v -2.2 0.2 -2.6
v -1.8 0.2 -2.6
v -1.4 0.2 -2.6
v -1 0.2 -2.6
v -0.6 0.2 -2.6
v -0.2 0.2 -2.6
v -0.0999999 0.2 -2.6
v 0.1 0.2 -2.6
v 0.2 0.2 -2.6
v 0.6 0.2 -2.6
v 1 0.2 -2.6
v 1.4 0.2 -2.6
v 1.8 0.2 -2.6
v 2.2 0.2 -2.6
v 2.4 0.2 -2.6
v 2.6 0.2 -2.6
v 2.8 0.2 -2.6
v 3 0.2 -2.6
v 3.2 0.2 -2.6
v 0.2 0.2 -2.7
v 0.6 0.2 -2.7
v 1 0.2 -2.7
v 1.4 0.2 -2.7
v 1.8 0.2 -2.7
v 2.2 0.2 -2.7
v -3 0.2 -2.8
v -2.8 0.2 -2.8
v -2.6 0.2 -2.8
v -2.4 0.2 -2.8
v -2.2 0.2 -2.8
v 2.2 0.2 -2.8
v 2.4 0.2 -2.8
v 2.6 0.2 -2.8
v 2.8 0.2 -2.8
v 3 0.2 -2.8
v 0.2 0.2 -2.9
v 0.6 0.2 -2.9
v 1 0.2 -2.9
v 1.4 0.2 -2.9
v 1.8 0.2 -2.9
v 2.2 0.2 -2.9
v -2.8 0.2 -3
v -2.6 0.2 -3
v -2.4 0.2 -3
v 2.4 0.2 -3
v 2.6 0.2 -3
v 2.8 0.2 -3
v -2.6 0.2 -3.2
v -2.4 0.2 -3.2
v -2.2 0.2 -3.2
v -0.0999999 0.2 -3.2
v 0.1 0.2 -3.2
v 2.2 0.2 -3.2
v 2.4 0.2 -3.2
v 2.6 0.2 -3.2
v 0.5 0.3 2.3
v 0.9 0.3 2.3
v 0.5 0.3 2.2
v 0.9 0.3 2.2
v -3.2 0.3 2.6
v 3.2 0.3 2.6
v -3.2 0.3 2.4
v 3.2 0.3 2.4
v -3.2 0.3 2.2
v 3.2 0.3 2.2
v -3.2 0.3 0.0999999
v -2.2 0.3 0.0999999
v 2.2 0.3 0.0999999
v 3.2 0.3 0.0999999
v -3.2 0.3 -0.3
v -2.2 0.3 -0.3
v 2.2 0.3 -0.3
v 3.2 0.3 -0.3
v -3.2 0.3 -2.2
v -2.8 0.3 -2.2
v 2.8 0.3 -2.2
v 3.2 0.3 -2.2
v -3.2 0.3 -2.4
v -3 0.3 -2.4
v -2.8 0.3 -2.4
v -2.6 0.3 -2.4
v -2.2 0.3 -2.4
v -1.8 0.3 -2.4
v -1.4 0.3 -2.4
v -1 0.3 -2.4
v -0.6 0.3 -2.4
v -0.2 0.3 -2.4
v 0.2 0.3 -2.4
v 0.6 0.3 -2.4
v 1 0.3 -2.4
v 1.4 0.3 -2.4
v 1.8 0.3 -2.4
v 2.2 0.3 -2.4
v 2.6 0.3 -2.4
v 2.8 0.3 -2.4
v 3 0.3 -2.4
v 3.2 0.3 -2.4
v -3.2 0.3 -2.6
v -3 0.3 -2.6
v -2.8 0.3 -2.6
v -2.6 0.3 -2.6
v -2.4 0.3 -2.6
v -2.2 0.3 -2.6
v -1.8 0.3 -2.6
v -1.4 0.3 -2.6
v -1 0.3 -2.6
v -0.6 0.3 -2.6
v -0.2 0.3 -2.6
v -0.0999999 0.3 -2.6
v 0.1 0.3 -2.6
v 0.2 0.3 -2.6
v 0.6 0.3 -2.6
v 1 0.3 -2.6
v 1.4 0.3 -2.6
v 1.8 0.3 -2.6
v 2.2 0.3 -2.6
v 2.4 0.3 -2.6
v 2.6 0.3 -2.6
v 2.8 0.3 -2.6
v 3 0.3 -2.6
v 3.2 0.3 -2.6
v 0.2 0.3 -2.7
v 0.6 0.3 -2.7
v 1 0.3 -2.7
v 1.4 0.3 -2.7
v 1.8 0.3 -2.7
v 2.2 0.3 -2.7
v -3 0.3 -2.8
v -2.8 0.3 -2.8
v -2.6 0.3 -2.8
v -2.4 0.3 -2.8
v -2.2 0.3 -2.8
v 2.2 0.3 -2.8
v 2.4 0.3 -2.8
v 2.6 0.3 -2.8
v 2.8 0.3 -2.8
v 3 0.3 -2.8
v 0.2 0.3 -2.9
v 0.6 0.3 -2.9
v 1 0.3 -2.9
v 1.4 0.3 -2.9
v 1.8 0.3 -2.9
v 2.2 0.3 -2.9
v -2.8 0.3 -3
v -2.6 0.3 -3
v -2.4 0.3 -3
v 2.4 0.3 -3
v 2.6 0.3 -3
v 2.8 0.3 -3
v -2.6 0.3 -3.2
v -2.4 0.3 -3.2
v -2.2 0.3 -3.2
v -0.0999999 0.3 -3.2
v 0.1 0.3 -3.2
v 2.2 0.3 -3.2
v 2.4 0.3 -3.2
v 2.6 0.3 -3.2
v -3.2 0.4 2.4
v 3.2 0.4 2.4
v -3.2 0.4 2.2
v 3.2 0.4 2.2
v -3.2 0.4 -2.2
v -2.8 0.4 -2.2
v 2.8 0.4 -2.2
v 3.2 0.4 -2.2
v -3.2 0.4 -2.4
v -3 0.4 -2.4
v -2.8 0.4 -2.4
v -2.6 0.4 -2.4
v 2.6 0.4 -2.4
v 2.8 0.4 -2.4
v 3 0.4 -2.4
v 3.2 0.4 -2.4
v -3 0.4 -2.6
v -2.8 0.4 -2.6
v -2.6 0.4 -2.6
v -2.4 0.4 -2.6
v 2.4 0.4 -2.6
v 2.6 0.4 -2.6
v 2.8 0.4 -2.6
v 3 0.4 -2.6
v -2.8 0.4 -2.8
v -2.6 0.4 -2.8
v -2.4 0.4 -2.8
v -2.2 0.4 -2.8
v 2.2 0.4 -2.8
v 2.4 0.4 -2.8
v 2.6 0.4 -2.8
v 2.8 0.4 -2.8
v -2.6 0.4 -3
v -2.4 0.4 -3
v 2.4 0.4 -3
v 2.6 0.4 -3
v -2.4 0.4 -3.2
v -2.2 0.4 -3.2
v 2.2 0.4 -3.2
v 2.4 0.4 -3.2

# faces
f 9/4/1 2/4/1 1/4/1
f 10/3/1 3/3/1 2/3/1
f 10/4/1 2/4/1 9/4/1
f 11/5/1 4/5/1 3/5/1
f 11/3/1 3/3/1 10/3/1
f 12/2/1 5/2/1 4/2/1
f 12/5/1 4/5/1 11/5/1
f 13/5/1 6/5/1 5/5/1
f 13/2/1 5/2/1 12/2/1
f 14/3/1 7/3/1 6/3/1
f 14/5/1 6/5/1 13/5/1
f 15/4/1 8/4/1 7/4/1
f 15/3/1 7/3/1 14/3/1
f 16/4/1 8/4/1 15/4/1
f 17/3/1 11/3/1 10/3/1
f 18/3/1 11/3/1 17/3/1
f 19/3/1 15/3/1 14/3/1
f 20/3/1 15/3/1 19/3/1
f 24/4/1 22/4/1 21/4/1
f 25/4/1 22/4/1 24/4/1
f 26/3/1 24/3/1 23/3/1
f 27/3/1 24/3/1 26/3/1
f 31/4/1 29/4/1 28/4/1
f 32/4/1 29/4/1 31/4/1
f 33/3/1 31/3/1 30/3/1
f 34/3/1 31/3/1 33/3/1
f 38/4/1 36/4/1 35/4/1
f 39/4/1 36/4/1 38/4/1
f 40/3/1 38/3/1 37/3/1
f 41/3/1 38/3/1 40/3/1
f 44/3/1 43/3/1 42/3/1
f 45/3/1 43/3/1 44/3/1
f 48/5/1 47/5/1 46/5/1
f 49/5/1 47/5/1 48/5/1
f 53/3/1 51/3/1 50/3/1
f 53/3/1 52/3/1 51/3/1
f 54/3/1 52/3/1 53/3/1
f 57/3/1 56/3/1 55/3/1
f 58/3/1 56/3/1 57/3/1
f 61/3/1 60/3/1 59/3/1
f 62/3/1 60/3/1 61/3/1
f 65/3/1 64/3/1 63/3/1
f 66/3/1 64/3/1 65/3/1
f 67/3/2 68/3/2 69/3/2
f 69/3/2 68/3/2 70/3/2
f 71/3/2 72/3/2 73/3/2
f 73/3/2 72/3/2 74/3/2
f 75/3/2 76/3/2 77/3/2
f 77/3/2 76/3/2 78/3/2
f 79/3/2 80/3/2 81/3/2
f 81/3/2 80/3/2 82/3/2
f 83/3/2 84/3/2 85/3/2
f 85/3/2 84/3/2 86/3/2
f 87/3/2 88/3/2 89/3/2
f 89/3/2 88/3/2 90/3/2
f 91/4/2 92/4/2 94/4/2
f 94/4/2 92/4/2 95/4/2
f 93/3/2 94/3/2 96/3/2
f 96/3/2 94/3/2 97/3/2
f 98/4/2 99/4/2 101/4/2
f 101/4/2 99/4/2 102/4/2
f 100/3/2 101/3/2 103/3/2
f 103/3/2 101/3/2 104/3/2
f 105/4/2 106/4/2 108/4/2
f 108/4/2 106/4/2 109/4/2
f 107/3/2 108/3/2 110/3/2
f 110/3/2 108/3/2 111/3/2
f 112/4/2 113/4/2 120/4/2
f 113/3/2 114/3/2 121/3/2
f 120/4/2 113/4/2 121/4/2
f 114/5/2 115/5/2 122/5/2
f 121/3/2 114/3/2 122/3/2
f 115/2/2 116/2/2 123/2/2
f 122/5/2 115/5/2 123/5/2
f 116/5/2 117/5/2 124/5/2
f 123/2/2 116/2/2 124/2/2
f 117/3/2 118/3/2 125/3/2
f 124/5/2 117/5/2 125/5/2
f 118/4/2 119/4/2 126/4/2
f 125/3/2 118/3/2 126/3/2
f 126/4/2 119/4/2 127/4/2
f 121/3/2 122/3/2 128/3/2
f 128/3/2 122/3/2 129/3/2
f 125/3/2 126/3/2 130/3/2
f 130/3/2 126/3/2 131/3/2
f 134/4/3 133/4/3 132/4/3
f 135/4/3 133/4/3 134/4/3
f 138/3/3 137/3/3 136/3/3
f 139/3/3 137/3/3 138/3/3
f 142/5/3 141/5/3 140/5/3
f 143/5/3 141/5/3 142/5/3
f 146/3/3 145/3/3 144/3/3
f 147/3/3 145/3/3 146/3/3
f 150/3/3 149/3/3 148/3/3
f 151/3/3 149/3/3 150/3/3
f 154/3/3 153/3/3 152/3/3
f 155/3/3 153/3/3 154/3/3
f 158/3/3 157/3/3 156/3/3
f 159/3/3 157/3/3 158/3/3
f 162/3/3 161/3/3 160/3/3
f 163/3/3 161/3/3 162/3/3
f 166/3/3 165/3/3 164/3/3
f 167/3/3 165/3/3 166/3/3
f 170/3/3 169/3/3 168/3/3
f 171/3/3 169/3/3 170/3/3
f 174/3/3 173/3/3 172/3/3
f 175/3/3 173/3/3 174/3/3
f 176/3/4 177/3/4 178/3/4
f 178/3/4 177/3/4 179/3/4
f 180/3/4 181/3/4 182/3/4
f 182/3/4 181/3/4 183/3/4
f 184/3/4 185/3/4 186/3/4
f 186/3/4 185/3/4 187/3/4
f 188/3/4 189/3/4 190/3/4
f 190/3/4 189/3/4 191/3/4
f 192/4/4 193/4/4 194/4/4
f 194/4/4 193/4/4 195/4/4
f 195/3/4 196/3/4 197/3/4
f 197/3/4 196/3/4 198/3/4
f 199/3/4 200/3/4 202/3/4
f 202/3/4 200/3/4 203/3/4
f 201/4/4 202/4/4 204/4/4
f 204/4/4 202/4/4 205/4/4
f 206/4/4 207/4/4 208/4/4
f 208/4/4 207/4/4 209/4/4
f 209/3/4 210/3/4 211/3/4
f 211/3/4 210/3/4 212/3/4
f 213/3/4 214/3/4 216/3/4
f 216/3/4 214/3/4 217/3/4
f 215/4/4 216/4/4 218/4/4
f 218/4/4 216/4/4 219/4/4
f 220/4/4 221/4/4 222/4/4
f 222/4/4 221/4/4 223/4/4
f 223/3/4 224/3/4 225/3/4
f 225/3/4 224/3/4 226/3/4
f 227/3/4 228/3/4 230/3/4
f 230/3/4 228/3/4 231/3/4
f 229/4/4 230/4/4 232/4/4
f 232/4/4 230/4/4 233/4/4
f 234/4/4 235/4/4 236/4/4
f 236/4/4 235/4/4 237/4/4
f 236/3/4 237/3/4 239/3/4
f 237/3/4 238/3/4 239/3/4
f 239/3/4 238/3/4 240/3/4
f 240/3/4 238/3/4 241/3/4
f 239/5/4 240/5/4 242/5/4
f 242/5/4 240/5/4 243/5/4
f 242/2/4 243/2/4 244/2/4
f 244/2/4 243/2/4 245/2/4
f 244/5/4 245/5/4 246/5/4
f 246/5/4 245/5/4 247/5/4
f 246/3/4 247/3/4 249/3/4
f 247/3/4 248/3/4 249/3/4
f 249/3/4 248/3/4 250/3/4
f 250/3/4 248/3/4 251/3/4
f 249/4/4 250/4/4 252/4/4
f 252/4/4 250/4/4 253/4/4
f 256/4/5 255/4/5 254/4/5
f 257/4/5 255/4/5 256/4/5
f 258/3/5 257/3/5 256/3/5
f 259/3/5 257/3/5 258/3/5
f 260/3/5 257/3/5 259/3/5
f 261/3/5 257/3/5 260/3/5
f 262/3/5 257/3/5 261/3/5
f 263/3/5 257/3/5 262/3/5
f 264/3/5 257/3/5 263/3/5
f 265/3/5 257/3/5 264/3/5
f 266/3/5 258/3/5 256/3/5
f 267/4/5 259/4/5 258/4/5
f 267/3/5 258/3/5 266/3/5
f 268/3/5 260/3/5 259/3/5
f 268/4/5 259/4/5 267/4/5
f 269/3/5 260/3/5 268/3/5
f 270/5/5 262/5/5 261/5/5
f 271/4/5 263/4/5 262/4/5
f 271/5/5 262/5/5 270/5/5
f 272/3/5 264/3/5 263/3/5
f 272/4/5 263/4/5 271/4/5
f 273/1/5 265/1/5 264/1/5
f 273/3/5 264/3/5 272/3/5
f 274/3/5 257/3/5 265/3/5
f 274/1/5 265/1/5 273/1/5
f 275/3/5 257/3/5 274/3/5
f 276/5/5 273/5/5 272/5/5
f 276/5/5 267/5/5 266/5/5
f 276/5/5 275/5/5 274/5/5
f 276/5/5 274/5/5 273/5/5
f 276/5/5 272/5/5 271/5/5
f 276/5/5 268/5/5 267/5/5
f 276/5/5 271/5/5 270/5/5
f 276/5/5 270/5/5 269/5/5
f 276/5/5 269/5/5 268/5/5
f 277/5/5 275/5/5 276/5/5
f 278/5/5 275/5/5 277/5/5
f 279/5/5 275/5/5 278/5/5
f 280/2/5 277/2/5 276/2/5
f 281/5/5 278/5/5 277/5/5
f 281/2/5 277/2/5 280/2/5
f 282/2/5 279/2/5 278/2/5
f 282/5/5 278/5/5 281/5/5
f 283/2/5 279/2/5 282/2/5
f 284/5/5 281/5/5 280/5/5
f 284/5/5 282/5/5 281/5/5
f 284/5/5 283/5/5 282/5/5
f 285/5/5 283/5/5 284/5/5
f 286/5/5 283/5/5 285/5/5
f 287/5/5 283/5/5 286/5/5
f 288/3/5 285/3/5 284/3/5
f 289/3/5 285/3/5 288/3/5
f 290/5/5 286/5/5 285/5/5
f 290/3/5 285/3/5 289/3/5
f 291/5/5 286/5/5 290/5/5
f 292/5/5 286/5/5 291/5/5
f 293/5/5 286/5/5 292/5/5
f 294/5/5 286/5/5 293/5/5
f 295/5/5 286/5/5 294/5/5
f 296/5/5 286/5/5 295/5/5
f 297/5/5 286/5/5 296/5/5
f 298/5/5 286/5/5 297/5/5
f 299/5/5 286/5/5 298/5/5
f 300/5/5 286/5/5 299/5/5
f 301/5/5 286/5/5 300/5/5
f 302/5/5 286/5/5 301/5/5
f 303/5/5 286/5/5 302/5/5
f 304/5/5 286/5/5 303/5/5
f 305/3/5 287/3/5 286/3/5
f 305/5/5 286/5/5 304/5/5
f 306/3/5 287/3/5 305/3/5
f 307/3/5 287/3/5 306/3/5
f 308/4/5 289/4/5 288/4/5
f 309/3/5 290/3/5 289/3/5
f 309/4/5 289/4/5 308/4/5
f 309/3/5 291/3/5 290/3/5
f 310/3/5 291/3/5 309/3/5
f 311/2/5 292/2/5 291/2/5
f 311/3/5 291/3/5 310/3/5
f 312/2/5 292/2/5 311/2/5
f 313/5/5 293/5/5 292/5/5
f 313/2/5 292/2/5 312/2/5
f 314/2/5 294/2/5 293/2/5
f 314/5/5 293/5/5 313/5/5
f 315/5/5 295/5/5 294/5/5
f 315/2/5 294/2/5 314/2/5
f 316/2/5 296/2/5 295/2/5
f 316/5/5 295/5/5 315/5/5
f 317/5/5 297/5/5 296/5/5
f 317/2/5 296/2/5 316/2/5
f 318/2/5 298/2/5 297/2/5
f 318/5/5 297/5/5 317/5/5
f 319/2/5 298/2/5 318/2/5
f 320/2/5 298/2/5 319/2/5
f 321/5/5 299/5/5 298/5/5
f 321/2/5 298/2/5 320/2/5
f 322/2/5 300/2/5 299/2/5
f 322/5/5 299/5/5 321/5/5
f 323/5/5 301/5/5 300/5/5
f 323/2/5 300/2/5 322/2/5
f 324/2/5 302/2/5 301/2/5
f 324/5/5 301/5/5 323/5/5
f 325/5/5 303/5/5 302/5/5
f 325/2/5 302/2/5 324/2/5
f 326/2/5 304/2/5 303/2/5
f 326/5/5 303/5/5 325/5/5
f 327/2/5 304/2/5 326/2/5
f 328/3/5 305/3/5 304/3/5
f 328/2/5 304/2/5 327/2/5
f 328/3/5 306/3/5 305/3/5
f 329/3/5 306/3/5 328/3/5
f 330/4/5 307/4/5 306/4/5
f 330/3/5 306/3/5 329/3/5
f 331/4/5 307/4/5 330/4/5
f 332/5/5 325/5/5 324/5/5
f 332/5/5 321/5/5 320/5/5
f 332/5/5 322/5/5 321/5/5
f 332/5/5 323/5/5 322/5/5
f 332/5/5 324/5/5 323/5/5
f 332/5/5 327/5/5 326/5/5
f 332/5/5 326/5/5 325/5/5
f 333/5/5 327/5/5 332/5/5
f 334/5/5 327/5/5 333/5/5
f 335/5/5 327/5/5 334/5/5
f 336/5/5 327/5/5 335/5/5
f 337/5/5 327/5/5 336/5/5
f 338/4/5 310/4/5 309/4/5
f 339/3/5 312/3/5 311/3/5
f 339/4/5 310/4/5 338/4/5
f 339/3/5 311/3/5 310/3/5
f 340/3/5 312/3/5 339/3/5
f 341/5/5 313/5/5 312/5/5
f 341/3/5 312/3/5 340/3/5
f 341/5/5 314/5/5 313/5/5
f 341/5/5 315/5/5 314/5/5
f 341/5/5 316/5/5 315/5/5
f 341/5/5 317/5/5 316/5/5
f 341/5/5 319/5/5 318/5/5
f 341/5/5 318/5/5 317/5/5
f 342/5/5 319/5/5 341/5/5
f 343/5/5 327/5/5 337/5/5
f 343/2/5 337/2/5 336/2/5
f 344/3/5 329/3/5 328/3/5
f 344/5/5 327/5/5 343/5/5
f 344/3/5 328/3/5 327/3/5
f 345/3/5 329/3/5 344/3/5
f 346/4/5 330/4/5 329/4/5
f 346/3/5 329/3/5 345/3/5
f 347/4/5 330/4/5 346/4/5
f 348/2/5 333/2/5 332/2/5
f 348/5/5 332/5/5 320/5/5
f 349/5/5 334/5/5 333/5/5
f 349/2/5 333/2/5 348/2/5
f 350/2/5 335/2/5 334/2/5
f 350/5/5 334/5/5 349/5/5
f 351/5/5 336/5/5 335/5/5
f 351/2/5 335/2/5 350/2/5
f 352/2/5 343/2/5 336/2/5
f 352/5/5 336/5/5 351/5/5
f 353/3/5 345/3/5 344/3/5
f 353/2/5 343/2/5 352/2/5
f 353/3/5 344/3/5 343/3/5
f 354/4/5 340/4/5 339/4/5
f 355/3/5 341/3/5 340/3/5
f 355/4/5 340/4/5 354/4/5
f 355/3/5 342/3/5 341/3/5
f 356/3/5 342/3/5 355/3/5
f 357/3/5 345/3/5 353/3/5
f 358/4/5 346/4/5 345/4/5
f 358/3/5 345/3/5 357/3/5
f 359/4/5 346/4/5 358/4/5
f 360/4/5 356/4/5 355/4/5
f 361/3/5 342/3/5 356/3/5
f 361/4/5 356/4/5 360/4/5
f 362/5/5 319/5/5 342/5/5
f 362/3/5 342/3/5 361/3/5
f 363/2/5 320/2/5 319/2/5
f 363/5/5 319/5/5 362/5/5
f 364/5/5 351/5/5 350/5/5
f 364/2/5 320/2/5 363/2/5
f 364/5/5 350/5/5 349/5/5
f 364/5/5 349/5/5 348/5/5
f 364/5/5 348/5/5 320/5/5
f 364/5/5 353/5/5 352/5/5
f 364/5/5 352/5/5 351/5/5
f 365/3/5 357/3/5 353/3/5
f 365/5/5 353/5/5 364/5/5
f 366/4/5 358/4/5 357/4/5
f 366/3/5 357/3/5 365/3/5
f 367/4/5 358/4/5 366/4/5
f 370/3/5 369/3/5 368/3/5
f 371/3/5 369/3/5 370/3/5
f 372/4/6 373/4/6 374/4/6
f 374/4/6 373/4/6 375/4/6
f 376/5/6 377/5/6 378/5/6
f 378/5/6 377/5/6 379/5/6
f 379/5/6 377/5/6 380/5/6
f 380/5/6 377/5/6 381/5/6
f 378/2/6 379/2/6 382/2/6
f 379/5/6 380/5/6 383/5/6
f 382/2/6 379/2/6 383/2/6
f 380/2/6 381/2/6 384/2/6
f 383/5/6 380/5/6 384/5/6
f 384/2/6 381/2/6 385/2/6
f 382/5/6 383/5/6 386/5/6
f 383/5/6 384/5/6 386/5/6
f 384/5/6 385/5/6 386/5/6
f 386/5/6 385/5/6 387/5/6
f 387/5/6 385/5/6 388/5/6
f 388/5/6 385/5/6 389/5/6
f 387/5/6 388/5/6 392/5/6
f 392/5/6 388/5/6 393/5/6
f 393/5/6 388/5/6 394/5/6
f 394/5/6 388/5/6 395/5/6
f 395/5/6 388/5/6 396/5/6
f 396/5/6 388/5/6 397/5/6
f 397/5/6 388/5/6 398/5/6
f 398/5/6 388/5/6 399/5/6
f 399/5/6 388/5/6 400/5/6
f 400/5/6 388/5/6 401/5/6
f 401/5/6 388/5/6 402/5/6
f 402/5/6 388/5/6 403/5/6
f 403/5/6 388/5/6 404/5/6
f 404/5/6 388/5/6 405/5/6
f 405/5/6 388/5/6 406/5/6
f 406/5/6 388/5/6 407/5/6
f 390/4/6 391/4/6 410/4/6
f 410/4/6 391/4/6 411/4/6
f 393/2/6 394/2/6 413/2/6
f 413/2/6 394/2/6 414/2/6
f 394/5/6 395/5/6 415/5/6
f 414/2/6 394/2/6 415/2/6
f 395/2/6 396/2/6 416/2/6
f 415/5/6 395/5/6 416/5/6
f 396/5/6 397/5/6 417/5/6
f 416/2/6 396/2/6 417/2/6
f 397/2/6 398/2/6 418/2/6
f 417/5/6 397/5/6 418/5/6
f 398/5/6 399/5/6 419/5/6
f 418/2/6 398/2/6 419/2/6
f 399/2/6 400/2/6 420/2/6
f 419/5/6 399/5/6 420/5/6
f 420/2/6 400/2/6 421/2/6
f 421/2/6 400/2/6 422/2/6
f 400/5/6 401/5/6 423/5/6
f 422/2/6 400/2/6 423/2/6
f 401/2/6 402/2/6 424/2/6
f 423/5/6 401/5/6 424/5/6
f 402/5/6 403/5/6 425/5/6
f 424/2/6 402/2/6 425/2/6
f 403/2/6 404/2/6 426/2/6
f 425/5/6 403/5/6 426/5/6
f 404/5/6 405/5/6 427/5/6
f 426/2/6 404/2/6 427/2/6
f 405/2/6 406/2/6 428/2/6
f 427/5/6 405/5/6 428/5/6
f 428/2/6 406/2/6 429/2/6
f 429/2/6 406/2/6 430/2/6
f 408/4/6 409/4/6 432/4/6
f 432/4/6 409/4/6 433/4/6
f 426/5/6 427/5/6 434/5/6
f 422/5/6 423/5/6 434/5/6
f 428/5/6 429/5/6 434/5/6
f 427/5/6 428/5/6 434/5/6
f 423/5/6 424/5/6 434/5/6
f 424/5/6 425/5/6 434/5/6
f 425/5/6 426/5/6 434/5/6
f 434/5/6 429/5/6 435/5/6
f 435/5/6 429/5/6 436/5/6
f 436/5/6 429/5/6 437/5/6
f 437/5/6 429/5/6 438/5/6
f 438/5/6 429/5/6 439/5/6
f 411/4/6 412/4/6 440/4/6
f 440/4/6 412/4/6 441/4/6
f 414/5/6 415/5/6 443/5/6
f 415/5/6 416/5/6 443/5/6
f 416/5/6 417/5/6 443/5/6
f 417/5/6 418/5/6 443/5/6
f 418/5/6 419/5/6 443/5/6
f 420/5/6 421/5/6 443/5/6
f 419/5/6 420/5/6 443/5/6
f 443/5/6 421/5/6 444/5/6
f 439/5/6 429/5/6 445/5/6
f 438/2/6 439/2/6 445/2/6
f 445/5/6 429/5/6 446/5/6
f 431/4/6 432/4/6 448/4/6
f 448/4/6 432/4/6 449/4/6
f 422/5/6 434/5/6 450/5/6
f 434/2/6 435/2/6 450/2/6
f 435/5/6 436/5/6 451/5/6
f 450/2/6 435/2/6 451/2/6
f 436/2/6 437/2/6 452/2/6
f 451/5/6 436/5/6 452/5/6
f 437/5/6 438/5/6 453/5/6
f 452/2/6 437/2/6 453/2/6
f 438/2/6 445/2/6 454/2/6
f 453/5/6 438/5/6 454/5/6
f 454/2/6 445/2/6 455/2/6
f 441/4/6 442/4/6 456/4/6
f 456/4/6 442/4/6 457/4/6
f 447/4/6 448/4/6 460/4/6
f 460/4/6 448/4/6 461/4/6
f 457/4/6 458/4/6 462/4/6
f 462/4/6 458/4/6 463/4/6
f 444/5/6 421/5/6 464/5/6
f 421/2/6 422/2/6 465/2/6
f 464/5/6 421/5/6 465/5/6
f 451/5/6 452/5/6 466/5/6
f 465/2/6 422/2/6 466/2/6
f 450/5/6 451/5/6 466/5/6
f 422/5/6 450/5/6 466/5/6
f 452/5/6 453/5/6 466/5/6
f 453/5/6 454/5/6 466/5/6
f 454/5/6 455/5/6 466/5/6
f 466/5/6 455/5/6 467/5/6
f 459/4/6 460/4/6 468/4/6
f 468/4/6 460/4/6 469/4/6
f 470/3/6 471/3/6 472/3/6
f 472/3/6 471/3/6 473/3/6
f 474/3/6 475/3/6 478/3/6
f 478/3/6 475/3/6 479/3/6
f 479/3/6 475/3/6 480/3/6
f 476/3/6 477/3/6 483/3/6
f 483/3/6 477/3/6 484/3/6
f 484/3/6 477/3/6 485/3/6
f 480/3/6 481/3/6 486/3/6
f 479/3/6 480/3/6 486/3/6
f 486/3/6 481/3/6 487/3/6
f 487/3/6 481/3/6 488/3/6
f 483/3/6 484/3/6 491/3/6
f 482/3/6 483/3/6 491/3/6
f 491/3/6 484/3/6 492/3/6
f 492/3/6 484/3/6 493/3/6
f 488/3/6 489/3/6 494/3/6
f 487/3/6 488/3/6 494/3/6
f 494/3/6 489/3/6 495/3/6
f 495/3/6 489/3/6 496/3/6
f 491/3/6 492/3/6 499/3/6
f 490/3/6 491/3/6 499/3/6
f 499/3/6 492/3/6 500/3/6
f 500/3/6 492/3/6 501/3/6
f 496/3/6 497/3/6 502/3/6
f 495/3/6 496/3/6 502/3/6
f 502/3/6 497/3/6 503/3/6
f 499/3/6 500/3/6 504/3/6
f 498/3/6 499/3/6 504/3/6
f 504/3/6 500/3/6 505/3/6
f 503/3/6 497/3/6 506/3/6
f 506/3/6 497/3/6 507/3/6
f 498/3/6 504/3/6 508/3/6
f 508/3/6 504/3/6 509/3/6
