# MagicaVoxel @ Ephtracy

# group
o 

# material
mtllib 90degree.mtl
usemtl palette

# normals
vn -1 0 0
vn 1 0 0
vn 0 0 1
vn 0 0 -1
vn 0 -1 0
vn 0 1 0

# texcoords
vt 0.189453 0.5
vt 0.193359 0.5

# verts
v -3.2 -1.6 3.2
v -3.2 -1.6 -3.2
v -3.2 -1.4 3.2
v -3.2 -1.4 -3.2
v 0.8 -1.6 3.2
v 0.8 -1.6 0.8
v 0.8 -1.4 3.2
v 0.8 -1.4 0.8
v -0.8 -1.6 3.2
v -0.8 -1.6 -0.8
v -0.8 -1.4 3.2
v -0.8 -1.4 -0.8
v 3.2 -1.6 3.2
v 3.2 -1.6 1
v 3.2 -1.6 0.8
v 3.2 -1.6 -0.8
v 3.2 -1.6 -1
v 3.2 -1.6 -3.2
v 3.2 -1.4 3.2
v 3.2 -1.4 1
v 3.2 -1.4 0.8
v 3.2 -1.4 -0.8
v 3.2 -1.4 -1
v 3.2 -1.4 -3.2
v -3.2 -1.6 3.2
v -3.2 -1.4 3.2
v -1 -1.6 3.2
v -1 -1.4 3.2
v -0.8 -1.6 3.2
v -0.8 -1.4 3.2
v 0.8 -1.6 3.2
v 0.8 -1.4 3.2
v 1 -1.6 3.2
v 1 -1.4 3.2
v 3.2 -1.6 3.2
v 3.2 -1.4 3.2
v -0.8 -1.6 -0.8
v -0.8 -1.4 -0.8
v 3.2 -1.6 -0.8
v 3.2 -1.4 -0.8
v 0.8 -1.6 0.8
v 0.8 -1.4 0.8
v 3.2 -1.6 0.8
v 3.2 -1.4 0.8
v -3.2 -1.6 -3.2
v -3.2 -1.4 -3.2
v 3.2 -1.6 -3.2
v 3.2 -1.4 -3.2
v -3.2 -1.6 3.2
v -1 -1.6 3.2
v -0.8 -1.6 3.2
v 0.8 -1.6 3.2
v 1 -1.6 3.2
v 3.2 -1.6 3.2
v 1 -1.6 1
v 3.2 -1.6 1
v 0.8 -1.6 0.8
v 3.2 -1.6 0.8
v -0.8 -1.6 -0.8
v 3.2 -1.6 -0.8
v -1 -1.6 -1
v 3.2 -1.6 -1
v -3.2 -1.6 -3.2
v 3.2 -1.6 -3.2
v -3.2 -1.4 3.2
v -1 -1.4 3.2
v -0.8 -1.4 3.2
v 0.8 -1.4 3.2
v 1 -1.4 3.2
v 3.2 -1.4 3.2
v 1 -1.4 1
v 3.2 -1.4 1
v 0.8 -1.4 0.8
v 3.2 -1.4 0.8
v -0.8 -1.4 -0.8
v 3.2 -1.4 -0.8
v -1 -1.4 -1
v 3.2 -1.4 -1
v -3.2 -1.4 -3.2
v 3.2 -1.4 -3.2

# faces
f 3/2/1 2/2/1 1/2/1
f 4/2/1 2/2/1 3/2/1
f 7/1/1 6/1/1 5/1/1
f 8/1/1 6/1/1 7/1/1
f 9/1/2 10/1/2 11/1/2
f 11/1/2 10/1/2 12/1/2
f 13/2/2 14/2/2 19/2/2
f 14/1/2 15/1/2 20/1/2
f 19/2/2 14/2/2 20/2/2
f 20/1/2 15/1/2 21/1/2
f 16/1/2 17/1/2 22/1/2
f 17/2/2 18/2/2 23/2/2
f 22/1/2 17/1/2 23/1/2
f 23/2/2 18/2/2 24/2/2
f 27/2/3 26/2/3 25/2/3
f 28/2/3 26/2/3 27/2/3
f 29/1/3 28/1/3 27/1/3
f 30/1/3 28/1/3 29/1/3
f 33/1/3 32/1/3 31/1/3
f 34/1/3 32/1/3 33/1/3
f 35/2/3 34/2/3 33/2/3
f 36/2/3 34/2/3 35/2/3
f 39/1/3 38/1/3 37/1/3
f 40/1/3 38/1/3 39/1/3
f 41/1/4 42/1/4 43/1/4
f 43/1/4 42/1/4 44/1/4
f 45/2/4 46/2/4 47/2/4
f 47/2/4 46/2/4 48/2/4
f 55/1/5 53/1/5 52/1/5
f 55/2/5 54/2/5 53/2/5
f 56/2/5 54/2/5 55/2/5
f 57/1/5 55/1/5 52/1/5
f 57/1/5 56/1/5 55/1/5
f 58/1/5 56/1/5 57/1/5
f 59/1/5 51/1/5 50/1/5
f 61/2/5 50/2/5 49/2/5
f 61/1/5 60/1/5 59/1/5
f 61/1/5 59/1/5 50/1/5
f 62/1/5 60/1/5 61/1/5
f 63/2/5 61/2/5 49/2/5
f 63/2/5 62/2/5 61/2/5
f 64/2/5 62/2/5 63/2/5
f 68/1/6 69/1/6 71/1/6
f 69/2/6 70/2/6 71/2/6
f 71/2/6 70/2/6 72/2/6
f 68/1/6 71/1/6 73/1/6
f 71/1/6 72/1/6 73/1/6
f 73/1/6 72/1/6 74/1/6
f 66/1/6 67/1/6 75/1/6
f 65/2/6 66/2/6 77/2/6
f 75/1/6 76/1/6 77/1/6
f 66/1/6 75/1/6 77/1/6
f 77/1/6 76/1/6 78/1/6
f 65/2/6 77/2/6 79/2/6
f 77/2/6 78/2/6 79/2/6
f 79/2/6 78/2/6 80/2/6
