# MagicaVoxel @ Ephtracy

# group
o 

# material
mtllib tshape.mtl
usemtl palette

# normals
vn -1 0 0
vn 1 0 0
vn 0 0 1
vn 0 0 -1
vn 0 -1 0
vn 0 1 0

# texcoords
vt 0.189453 0.5
vt 0.193359 0.5

# verts
v -3.2 -1.6 3.2
v -3.2 -1.6 -3.2
v -3.2 -1.4 3.2
v -3.2 -1.4 -3.2
v 0.8 -1.6 3.2
v 0.8 -1.6 0.8
v 0.8 -1.6 -0.8
v 0.8 -1.6 -3.2
v 0.8 -1.4 3.2
v 0.8 -1.4 0.8
v 0.8 -1.4 -0.8
v 0.8 -1.4 -3.2
v -0.8 -1.6 3.2
v -0.8 -1.6 -3.2
v -0.8 -1.4 3.2
v -0.8 -1.4 -3.2
v 3.2 -1.6 3.2
v 3.2 -1.6 1
v 3.2 -1.6 0.8
v 3.2 -1.6 -0.8
v 3.2 -1.6 -1
v 3.2 -1.6 -3.2
v 3.2 -1.4 3.2
v 3.2 -1.4 1
v 3.2 -1.4 0.8
v 3.2 -1.4 -0.8
v 3.2 -1.4 -1
v 3.2 -1.4 -3.2
v -3.2 -1.6 3.2
v -3.2 -1.4 3.2
v -1 -1.6 3.2
v -1 -1.4 3.2
v -0.8 -1.6 3.2
v -0.8 -1.4 3.2
v 0.8 -1.6 3.2
v 0.8 -1.4 3.2
v 1 -1.6 3.2
v 1 -1.4 3.2
v 3.2 -1.6 3.2
v 3.2 -1.4 3.2
v 0.8 -1.6 -0.8
v 0.8 -1.4 -0.8
v 3.2 -1.6 -0.8
v 3.2 -1.4 -0.8
v 0.8 -1.6 0.8
v 0.8 -1.4 0.8
v 3.2 -1.6 0.8
v 3.2 -1.4 0.8
v -3.2 -1.6 -3.2
v -3.2 -1.4 -3.2
v -1 -1.6 -3.2
v -1 -1.4 -3.2
v -0.8 -1.6 -3.2
v -0.8 -1.4 -3.2
v 0.8 -1.6 -3.2
v 0.8 -1.4 -3.2
v 1 -1.6 -3.2
v 1 -1.4 -3.2
v 3.2 -1.6 -3.2
v 3.2 -1.4 -3.2
v -3.2 -1.6 3.2
v -1 -1.6 3.2
v -0.8 -1.6 3.2
v 0.8 -1.6 3.2
v 1 -1.6 3.2
v 3.2 -1.6 3.2
v 1 -1.6 1
v 3.2 -1.6 1
v 0.8 -1.6 0.8
v 3.2 -1.6 0.8
v 0.8 -1.6 -0.8
v 3.2 -1.6 -0.8
v 1 -1.6 -1
v 3.2 -1.6 -1
v -3.2 -1.6 -3.2
v -1 -1.6 -3.2
v -0.8 -1.6 -3.2
v 0.8 -1.6 -3.2
v 1 -1.6 -3.2
v 3.2 -1.6 -3.2
v -3.2 -1.4 3.2
v -1 -1.4 3.2
v -0.8 -1.4 3.2
v 0.8 -1.4 3.2
v 1 -1.4 3.2
v 3.2 -1.4 3.2
v 1 -1.4 1
v 3.2 -1.4 1
v 0.8 -1.4 0.8
v 3.2 -1.4 0.8
v 0.8 -1.4 -0.8
v 3.2 -1.4 -0.8
v 1 -1.4 -1
v 3.2 -1.4 -1
v -3.2 -1.4 -3.2
v -1 -1.4 -3.2
v -0.8 -1.4 -3.2
v 0.8 -1.4 -3.2
v 1 -1.4 -3.2
v 3.2 -1.4 -3.2

# faces
f 3/2/1 2/2/1 1/2/1
f 4/2/1 2/2/1 3/2/1
f 9/1/1 6/1/1 5/1/1
f 10/1/1 6/1/1 9/1/1
f 11/1/1 8/1/1 7/1/1
f 12/1/1 8/1/1 11/1/1
f 13/1/2 14/1/2 15/1/2
f 15/1/2 14/1/2 16/1/2
f 17/2/2 18/2/2 23/2/2
f 18/1/2 19/1/2 24/1/2
f 23/2/2 18/2/2 24/2/2
f 24/1/2 19/1/2 25/1/2
f 20/1/2 21/1/2 26/1/2
f 21/2/2 22/2/2 27/2/2
f 26/1/2 21/1/2 27/1/2
f 27/2/2 22/2/2 28/2/2
f 31/2/3 30/2/3 29/2/3
f 32/2/3 30/2/3 31/2/3
f 33/1/3 32/1/3 31/1/3
f 34/1/3 32/1/3 33/1/3
f 37/1/3 36/1/3 35/1/3
f 38/1/3 36/1/3 37/1/3
f 39/2/3 38/2/3 37/2/3
f 40/2/3 38/2/3 39/2/3
f 43/1/3 42/1/3 41/1/3
f 44/1/3 42/1/3 43/1/3
f 45/1/4 46/1/4 47/1/4
f 47/1/4 46/1/4 48/1/4
f 49/2/4 50/2/4 51/2/4
f 51/2/4 50/2/4 52/2/4
f 51/1/4 52/1/4 53/1/4
f 53/1/4 52/1/4 54/1/4
f 55/1/4 56/1/4 57/1/4
f 57/1/4 56/1/4 58/1/4
f 57/2/4 58/2/4 59/2/4
f 59/2/4 58/2/4 60/2/4
f 67/1/5 65/1/5 64/1/5
f 67/2/5 66/2/5 65/2/5
f 68/2/5 66/2/5 67/2/5
f 69/1/5 67/1/5 64/1/5
f 69/1/5 68/1/5 67/1/5
f 70/1/5 68/1/5 69/1/5
f 73/1/5 72/1/5 71/1/5
f 74/1/5 72/1/5 73/1/5
f 75/2/5 62/2/5 61/2/5
f 76/1/5 63/1/5 62/1/5
f 76/2/5 62/2/5 75/2/5
f 77/1/5 63/1/5 76/1/5
f 78/1/5 73/1/5 71/1/5
f 79/2/5 74/2/5 73/2/5
f 79/1/5 73/1/5 78/1/5
f 80/2/5 74/2/5 79/2/5
f 84/1/6 85/1/6 87/1/6
f 85/2/6 86/2/6 87/2/6
f 87/2/6 86/2/6 88/2/6
f 84/1/6 87/1/6 89/1/6
f 87/1/6 88/1/6 89/1/6
f 89/1/6 88/1/6 90/1/6
f 91/1/6 92/1/6 93/1/6
f 93/1/6 92/1/6 94/1/6
f 81/2/6 82/2/6 95/2/6
f 82/1/6 83/1/6 96/1/6
f 95/2/6 82/2/6 96/2/6
f 96/1/6 83/1/6 97/1/6
f 91/1/6 93/1/6 98/1/6
f 93/2/6 94/2/6 99/2/6
f 98/1/6 93/1/6 99/1/6
f 99/2/6 94/2/6 100/2/6
