# MagicaVoxel @ Ephtracy

# group
o 

# material
mtllib startconnecr.mtl
usemtl palette

# normals
vn -1 0 0
vn 1 0 0
vn 0 0 1
vn 0 0 -1
vn 0 -1 0
vn 0 1 0

# texcoords
vt 0.958984 0.5
vt 0.974609 0.5
vt 0.982422 0.5
vt 0.986328 0.5
vt 0.994141 0.5

# verts
v -3.2 0 3.2
v -3.2 0 2.6
v -3.2 0 2.4
v -3.2 0 2.2
v -3.2 0 0.2
v -3.2 0 -0.2
v -3.2 0 -2.2
v -3.2 0 -2.4
v -3.2 0 -2.6
v -3.2 0 -3.2
v -3.2 0.1 2.6
v -3.2 0.1 2.4
v -3.2 0.1 2.2
v -3.2 0.1 0.2
v -3.2 0.1 -0.2
v -3.2 0.1 -2.2
v -3.2 0.1 -2.4
v -3.2 0.1 -2.6
v -3.2 0.2 3.2
v -3.2 0.2 -3.2
v -2.6 0.2 3.2
v -2.6 0.2 -3.2
v -2.6 0.3 3.2
v -2.6 0.3 -3.2
v 2.2 0.1 2.8
v 2.2 0.1 2.2
v 2.2 0.1 -2.2
v 2.2 0.1 -3.2
v 2.2 0.3 2.8
v 2.2 0.3 2.2
v 2.2 0.3 -2.2
v 2.2 0.3 -3.2
v -2.2 0.1 2.8
v -2.2 0.1 -3.2
v -2.2 0.3 2.8
v -2.2 0.3 -3.2
v 2.6 0.2 3.2
v 2.6 0.2 2.6
v 2.6 0.2 -2.6
v 2.6 0.2 -3.2
v 2.6 0.3 3.2
v 2.6 0.3 2.6
v 2.6 0.3 -2.6
v 2.6 0.3 -3.2
v 3.2 0 3.2
v 3.2 0 2.6
v 3.2 0 2.2
v 3.2 0 0.2
v 3.2 0 -0.2
v 3.2 0 -2.2
v 3.2 0 -2.6
v 3.2 0 -3.2
v 3.2 0.1 2.3
v 3.2 0.1 2.2
v 3.2 0.1 0.2
v 3.2 0.1 -0.2
v 3.2 0.1 -2.2
v 3.2 0.1 -2.4
v 3.2 0.2 3.2
v 3.2 0.2 2.6
v 3.2 0.2 2.4
v 3.2 0.2 2.3
v 3.2 0.2 -2.6
v 3.2 0.2 -3.2
v 3.2 0.3 2.6
v 3.2 0.3 2.4
v 3.2 0.3 2.2
v 3.2 0.3 -2.2
v 3.2 0.3 -2.4
v 3.2 0.3 -2.6
v -3.2 0 3.2
v -3.2 0.2 3.2
v -2.6 0.2 3.2
v -2.6 0.3 3.2
v 2.6 0.2 3.2
v 2.6 0.3 3.2
v 3.2 0 3.2
v 3.2 0.2 3.2
v 2.6 0.2 2.6
v 2.6 0.3 2.6
v 3.2 0.2 2.6
v 3.2 0.3 2.6
v 2.2 0.1 -2.2
v 2.2 0.3 -2.2
v 2.4 0.1 -2.2
v 3.2 0.1 -2.2
v 3.2 0.3 -2.2
v -2.2 0.1 2.8
v -2.2 0.3 2.8
v 2.2 0.1 2.8
v 2.2 0.3 2.8
v 2.2 0.1 2.2
v 2.2 0.3 2.2
v 2.4 0.1 2.2
v 3.2 0.1 2.2
v 3.2 0.3 2.2
v 2.6 0.2 -2.6
v 2.6 0.3 -2.6
v 3.2 0.2 -2.6
v 3.2 0.3 -2.6
v -3.2 0 -3.2
v -3.2 0.2 -3.2
v -2.6 0.2 -3.2
v -2.6 0.3 -3.2
v -2.4 0.1 -3.2
v -2.4 0.2 -3.2
v -2.4 0.3 -3.2
v -2.2 0 -3.2
v -2.2 0.1 -3.2
v -2.2 0.3 -3.2
v 2.2 0 -3.2
v 2.2 0.1 -3.2
v 2.2 0.3 -3.2
v 2.4 0.1 -3.2
v 2.4 0.2 -3.2
v 2.4 0.3 -3.2
v 2.6 0.2 -3.2
v 2.6 0.3 -3.2
v 3.2 0 -3.2
v 3.2 0.2 -3.2
v -3.2 0 3.2
v 3.2 0 3.2
v -2.2 0 2.8
v 2.2 0 2.8
v -3.2 0 2.6
v -2.2 0 2.6
v 2.2 0 2.6
v 3.2 0 2.6
v -3.2 0 2.4
v -2.2 0 2.4
v 2.2 0 2.4
v 3.1 0 2.4
v -3.2 0 2.2
v -2.2 0 2.2
v 2.2 0 2.2
v 2.4 0 2.2
v 3.1 0 2.2
v 3.2 0 2.2
v 2.6 0 2.1
v 2.8 0 2.1
v 2.2 0 1.8
v 2.4 0 1.8
v 2.6 0 1.7
v 2.8 0 1.7
v 2.2 0 1.4
v 2.4 0 1.4
v 2.6 0 1.3
v 2.8 0 1.3
v 2.2 0 1
v 2.4 0 1
v 2.6 0 0.9
v 2.8 0 0.9
v 2.2 0 0.6
v 2.4 0 0.6
v 2.6 0 0.5
v 2.8 0 0.5
v -3.2 0 0.2
v -2.2 0 0.2
v 2.2 0 0.2
v 2.4 0 0.2
v 2.8 0 0.2
v 3.2 0 0.2
v -3.2 0 -0.2
v -2.2 0 -0.2
v 2.2 0 -0.2
v 2.4 0 -0.2
v 2.6 0 -0.2
v 3.2 0 -0.2
v 2.2 0 -0.6
v 2.4 0 -0.6
v 2.2 0 -1
v 2.4 0 -1
v 2.2 0 -1.4
v 2.4 0 -1.4
v 2.2 0 -1.8
v 2.4 0 -1.8
v -3.2 0 -2.2
v -2.2 0 -2.2
v 2.2 0 -2.2
v 2.4 0 -2.2
v 3.1 0 -2.2
v 3.2 0 -2.2
v -3.2 0 -2.4
v -2.2 0 -2.4
v 2.2 0 -2.4
v 3.1 0 -2.4
v -3.2 0 -2.6
v -2.2 0 -2.6
v 2.2 0 -2.6
v 3.2 0 -2.6
v -3.2 0 -3.2
v -2.2 0 -3.2
v 2.2 0 -3.2
v 3.2 0 -3.2
v -2.2 0.1 2.8
v 2.2 0.1 2.8
v 2.2 0.1 2.2
v 2.4 0.1 2.2
v 3.2 0.1 2.2
v 2.6 0.1 2.1
v 2.8 0.1 2.1
v 2.2 0.1 1.8
v 2.4 0.1 1.8
v 2.6 0.1 1.7
v 2.8 0.1 1.7
v 2.2 0.1 1.4
v 2.4 0.1 1.4
v 2.6 0.1 1.3
v 2.8 0.1 1.3
v 2.2 0.1 1
v 2.4 0.1 1
v 2.6 0.1 0.9
v 2.8 0.1 0.9
v 2.2 0.1 0.6
v 2.4 0.1 0.6
v 2.6 0.1 0.5
v 2.8 0.1 0.5
v 2.2 0.1 0.2
v 2.4 0.1 0.2
v 2.8 0.1 0.2
v 3.2 0.1 0.2
v 2.2 0.1 -0.2
v 2.4 0.1 -0.2
v 2.6 0.1 -0.2
v 3.2 0.1 -0.2
v 2.2 0.1 -0.6
v 2.4 0.1 -0.6
v 2.2 0.1 -1
v 2.4 0.1 -1
v 2.2 0.1 -1.4
v 2.4 0.1 -1.4
v 2.2 0.1 -1.8
v 2.4 0.1 -1.8
v 2.2 0.1 -2.2
v 2.4 0.1 -2.2
v 3.2 0.1 -2.2
v -2.2 0.1 -3.2
v 2.2 0.1 -3.2
v -3.2 0.2 3.2
v -2.6 0.2 3.2
v 2.6 0.2 3.2
v 3.2 0.2 3.2
v 2.6 0.2 2.6
v 3.2 0.2 2.6
v 2.6 0.2 -2.6
v 3.2 0.2 -2.6
v -3.2 0.2 -3.2
v -2.6 0.2 -3.2
v 2.6 0.2 -3.2
v 3.2 0.2 -3.2
v -2.6 0.3 3.2
v 2.6 0.3 3.2
v -2.4 0.3 3
v 2.4 0.3 3
v -2.2 0.3 2.8
v 2.2 0.3 2.8
v 2.6 0.3 2.6
v 3.2 0.3 2.6
v 2.4 0.3 2.4
v 3.2 0.3 2.4
v 2.2 0.3 2.2
v 3.2 0.3 2.2
v 2.2 0.3 -2.2
v 3.2 0.3 -2.2
v 2.4 0.3 -2.4
v 3.2 0.3 -2.4
v 2.6 0.3 -2.6
v 3.2 0.3 -2.6
v -2.6 0.3 -3.2
v -2.4 0.3 -3.2
v -2.2 0.3 -3.2
v 2.2 0.3 -3.2
v 2.4 0.3 -3.2
v 2.6 0.3 -3.2

# faces
f 11/2/1 2/2/1 1/2/1
f 11/4/1 3/4/1 2/4/1
f 12/3/1 4/3/1 3/3/1
f 12/4/1 3/4/1 11/4/1
f 13/5/1 5/5/1 4/5/1
f 13/3/1 4/3/1 12/3/1
f 14/1/1 6/1/1 5/1/1
f 14/5/1 5/5/1 13/5/1
f 15/5/1 7/5/1 6/5/1
f 15/1/1 6/1/1 14/1/1
f 16/3/1 8/3/1 7/3/1
f 16/5/1 7/5/1 15/5/1
f 17/4/1 9/4/1 8/4/1
f 17/3/1 8/3/1 16/3/1
f 18/2/1 10/2/1 9/2/1
f 18/4/1 9/4/1 17/4/1
f 19/2/1 17/2/1 16/2/1
f 19/2/1 16/2/1 15/2/1
f 19/2/1 18/2/1 17/2/1
f 19/2/1 15/2/1 14/2/1
f 19/2/1 14/2/1 13/2/1
f 19/2/1 13/2/1 12/2/1
f 19/2/1 12/2/1 11/2/1
f 19/2/1 11/2/1 1/2/1
f 20/2/1 10/2/1 18/2/1
f 20/2/1 18/2/1 19/2/1
f 23/4/1 22/4/1 21/4/1
f 24/4/1 22/4/1 23/4/1
f 29/3/1 26/3/1 25/3/1
f 30/3/1 26/3/1 29/3/1
f 31/3/1 28/3/1 27/3/1
f 32/3/1 28/3/1 31/3/1
f 33/3/2 34/3/2 35/3/2
f 35/3/2 34/3/2 36/3/2
f 37/4/2 38/4/2 41/4/2
f 41/4/2 38/4/2 42/4/2
f 39/4/2 40/4/2 43/4/2
f 43/4/2 40/4/2 44/4/2
f 46/4/2 47/4/2 53/4/2
f 47/5/2 48/5/2 54/5/2
f 53/4/2 47/4/2 54/4/2
f 48/1/2 49/1/2 55/1/2
f 54/5/2 48/5/2 55/5/2
f 49/5/2 50/5/2 56/5/2
f 55/1/2 49/1/2 56/1/2
f 50/4/2 51/4/2 57/4/2
f 56/5/2 50/5/2 57/5/2
f 57/4/2 51/4/2 58/4/2
f 45/2/2 46/2/2 59/2/2
f 46/4/2 53/4/2 60/4/2
f 59/2/2 46/2/2 60/2/2
f 60/4/2 53/4/2 61/4/2
f 53/3/2 54/3/2 62/3/2
f 61/4/2 53/4/2 62/4/2
f 58/4/2 51/4/2 63/4/2
f 51/2/2 52/2/2 63/2/2
f 63/2/2 52/2/2 64/2/2
f 60/4/2 61/4/2 65/4/2
f 61/3/2 62/3/2 66/3/2
f 65/4/2 61/4/2 66/4/2
f 62/3/2 54/3/2 67/3/2
f 66/3/2 62/3/2 67/3/2
f 57/3/2 58/3/2 68/3/2
f 58/4/2 63/4/2 69/4/2
f 68/3/2 58/3/2 69/3/2
f 69/4/2 63/4/2 70/4/2
f 73/2/3 72/2/3 71/2/3
f 75/2/3 73/2/3 71/2/3
f 75/4/3 74/4/3 73/4/3
f 76/4/3 74/4/3 75/4/3
f 77/2/3 75/2/3 71/2/3
f 78/2/3 75/2/3 77/2/3
f 81/4/3 80/4/3 79/4/3
f 82/4/3 80/4/3 81/4/3
f 85/3/3 84/3/3 83/3/3
f 86/3/3 84/3/3 85/3/3
f 87/3/3 84/3/3 86/3/3
f 88/3/4 89/3/4 90/3/4
f 90/3/4 89/3/4 91/3/4
f 92/3/4 93/3/4 94/3/4
f 94/3/4 93/3/4 95/3/4
f 95/3/4 93/3/4 96/3/4
f 97/4/4 98/4/4 99/4/4
f 99/4/4 98/4/4 100/4/4
f 101/2/4 102/2/4 103/2/4
f 101/2/4 103/2/4 105/2/4
f 103/4/4 104/4/4 106/4/4
f 105/2/4 103/2/4 106/2/4
f 106/4/4 104/4/4 107/4/4
f 101/2/4 105/2/4 108/2/4
f 105/3/4 106/3/4 109/3/4
f 108/2/4 105/2/4 109/2/4
f 106/3/4 107/3/4 109/3/4
f 109/3/4 107/3/4 110/3/4
f 108/5/4 109/5/4 111/5/4
f 111/5/4 109/5/4 112/5/4
f 111/2/4 112/2/4 114/2/4
f 112/3/4 113/3/4 114/3/4
f 114/3/4 113/3/4 115/3/4
f 115/3/4 113/3/4 116/3/4
f 114/2/4 115/2/4 117/2/4
f 115/4/4 116/4/4 117/4/4
f 117/4/4 116/4/4 118/4/4
f 111/2/4 114/2/4 119/2/4
f 114/2/4 117/2/4 119/2/4
f 119/2/4 117/2/4 120/2/4
f 123/2/5 122/2/5 121/2/5
f 124/2/5 122/2/5 123/2/5
f 125/2/5 123/2/5 121/2/5
f 126/5/5 124/5/5 123/5/5
f 126/2/5 123/2/5 125/2/5
f 127/2/5 122/2/5 124/2/5
f 127/5/5 124/5/5 126/5/5
f 128/2/5 122/2/5 127/2/5
f 129/4/5 126/4/5 125/4/5
f 130/5/5 127/5/5 126/5/5
f 130/4/5 126/4/5 129/4/5
f 131/4/5 128/4/5 127/4/5
f 131/5/5 127/5/5 130/5/5
f 132/4/5 128/4/5 131/4/5
f 133/3/5 130/3/5 129/3/5
f 134/5/5 131/5/5 130/5/5
f 134/3/5 130/3/5 133/3/5
f 135/3/5 132/3/5 131/3/5
f 135/5/5 131/5/5 134/5/5
f 136/3/5 132/3/5 135/3/5
f 137/4/5 128/4/5 132/4/5
f 137/3/5 132/3/5 136/3/5
f 138/4/5 128/4/5 137/4/5
f 139/5/5 137/5/5 136/5/5
f 139/5/5 138/5/5 137/5/5
f 140/5/5 138/5/5 139/5/5
f 141/1/5 136/1/5 135/1/5
f 141/5/5 134/5/5 133/5/5
f 141/5/5 135/5/5 134/5/5
f 142/5/5 139/5/5 136/5/5
f 142/1/5 136/1/5 141/1/5
f 143/1/5 140/1/5 139/1/5
f 143/5/5 139/5/5 142/5/5
f 143/5/5 142/5/5 141/5/5
f 144/5/5 138/5/5 140/5/5
f 144/1/5 140/1/5 143/1/5
f 145/5/5 143/5/5 141/5/5
f 145/5/5 141/5/5 133/5/5
f 145/5/5 144/5/5 143/5/5
f 146/5/5 144/5/5 145/5/5
f 147/5/5 144/5/5 146/5/5
f 148/5/5 138/5/5 144/5/5
f 148/5/5 144/5/5 147/5/5
f 149/5/5 145/5/5 133/5/5
f 149/1/5 146/1/5 145/1/5
f 150/5/5 147/5/5 146/5/5
f 150/1/5 146/1/5 149/1/5
f 151/1/5 148/1/5 147/1/5
f 151/5/5 147/5/5 150/5/5
f 151/5/5 150/5/5 149/5/5
f 152/5/5 138/5/5 148/5/5
f 152/1/5 148/1/5 151/1/5
f 153/5/5 149/5/5 133/5/5
f 153/5/5 151/5/5 149/5/5
f 153/5/5 152/5/5 151/5/5
f 154/5/5 152/5/5 153/5/5
f 155/5/5 152/5/5 154/5/5
f 156/5/5 138/5/5 152/5/5
f 156/5/5 152/5/5 155/5/5
f 157/5/5 153/5/5 133/5/5
f 158/5/5 153/5/5 157/5/5
f 159/1/5 154/1/5 153/1/5
f 159/5/5 153/5/5 158/5/5
f 160/5/5 155/5/5 154/5/5
f 160/1/5 154/1/5 159/1/5
f 161/5/5 138/5/5 156/5/5
f 161/1/5 156/1/5 155/1/5
f 162/5/5 138/5/5 161/5/5
f 163/1/5 158/1/5 157/1/5
f 164/5/5 159/5/5 158/5/5
f 164/1/5 158/1/5 163/1/5
f 164/5/5 160/5/5 159/5/5
f 165/5/5 160/5/5 164/5/5
f 166/5/5 155/5/5 160/5/5
f 166/5/5 160/5/5 165/5/5
f 167/1/5 162/1/5 161/1/5
f 167/5/5 155/5/5 166/5/5
f 167/1/5 161/1/5 155/1/5
f 168/1/5 162/1/5 167/1/5
f 169/5/5 165/5/5 164/5/5
f 169/1/5 166/1/5 165/1/5
f 169/5/5 164/5/5 163/5/5
f 170/5/5 168/5/5 167/5/5
f 170/1/5 166/1/5 169/1/5
f 170/5/5 167/5/5 166/5/5
f 171/5/5 169/5/5 163/5/5
f 171/5/5 170/5/5 169/5/5
f 172/5/5 168/5/5 170/5/5
f 172/5/5 170/5/5 171/5/5
f 173/5/5 171/5/5 163/5/5
f 173/1/5 172/1/5 171/1/5
f 174/5/5 168/5/5 172/5/5
f 174/1/5 172/1/5 173/1/5
f 175/5/5 173/5/5 163/5/5
f 175/5/5 174/5/5 173/5/5
f 176/5/5 168/5/5 174/5/5
f 176/5/5 174/5/5 175/5/5
f 177/5/5 175/5/5 163/5/5
f 178/5/5 175/5/5 177/5/5
f 179/1/5 176/1/5 175/1/5
f 179/5/5 175/5/5 178/5/5
f 180/5/5 168/5/5 176/5/5
f 180/1/5 176/1/5 179/1/5
f 181/5/5 168/5/5 180/5/5
f 182/5/5 168/5/5 181/5/5
f 183/3/5 178/3/5 177/3/5
f 184/5/5 179/5/5 178/5/5
f 184/3/5 178/3/5 183/3/5
f 185/3/5 180/3/5 179/3/5
f 185/5/5 179/5/5 184/5/5
f 185/3/5 181/3/5 180/3/5
f 186/4/5 182/4/5 181/4/5
f 186/3/5 181/3/5 185/3/5
f 187/4/5 184/4/5 183/4/5
f 188/5/5 185/5/5 184/5/5
f 188/4/5 184/4/5 187/4/5
f 189/4/5 186/4/5 185/4/5
f 189/5/5 185/5/5 188/5/5
f 190/4/5 182/4/5 186/4/5
f 190/4/5 186/4/5 189/4/5
f 191/2/5 188/2/5 187/2/5
f 192/5/5 189/5/5 188/5/5
f 192/2/5 188/2/5 191/2/5
f 193/2/5 190/2/5 189/2/5
f 193/5/5 189/5/5 192/5/5
f 194/2/5 190/2/5 193/2/5
f 195/5/6 196/5/6 197/5/6
f 198/5/6 199/5/6 200/5/6
f 200/5/6 199/5/6 201/5/6
f 195/5/6 197/5/6 202/5/6
f 197/1/6 198/1/6 202/1/6
f 198/5/6 200/5/6 203/5/6
f 202/1/6 198/1/6 203/1/6
f 200/1/6 201/1/6 204/1/6
f 203/5/6 200/5/6 204/5/6
f 202/5/6 203/5/6 204/5/6
f 201/5/6 199/5/6 205/5/6
f 204/1/6 201/1/6 205/1/6
f 202/5/6 204/5/6 206/5/6
f 195/5/6 202/5/6 206/5/6
f 204/5/6 205/5/6 206/5/6
f 206/5/6 205/5/6 207/5/6
f 207/5/6 205/5/6 208/5/6
f 205/5/6 199/5/6 209/5/6
f 208/5/6 205/5/6 209/5/6
f 195/5/6 206/5/6 210/5/6
f 206/1/6 207/1/6 210/1/6
f 207/5/6 208/5/6 211/5/6
f 210/1/6 207/1/6 211/1/6
f 208/1/6 209/1/6 212/1/6
f 211/5/6 208/5/6 212/5/6
f 210/5/6 211/5/6 212/5/6
f 209/5/6 199/5/6 213/5/6
f 212/1/6 209/1/6 213/1/6
f 195/5/6 210/5/6 214/5/6
f 210/5/6 212/5/6 214/5/6
f 212/5/6 213/5/6 214/5/6
f 214/5/6 213/5/6 215/5/6
f 215/5/6 213/5/6 216/5/6
f 213/5/6 199/5/6 217/5/6
f 216/5/6 213/5/6 217/5/6
f 195/5/6 214/5/6 218/5/6
f 214/1/6 215/1/6 218/1/6
f 215/5/6 216/5/6 219/5/6
f 218/1/6 215/1/6 219/1/6
f 217/5/6 199/5/6 220/5/6
f 216/1/6 217/1/6 220/1/6
f 220/5/6 199/5/6 221/5/6
f 195/5/6 218/5/6 222/5/6
f 218/5/6 219/5/6 222/5/6
f 219/5/6 216/5/6 223/5/6
f 222/5/6 219/5/6 223/5/6
f 220/1/6 221/1/6 224/1/6
f 223/5/6 216/5/6 224/5/6
f 216/1/6 220/1/6 224/1/6
f 224/1/6 221/1/6 225/1/6
f 195/5/6 222/5/6 226/5/6
f 222/1/6 223/1/6 226/1/6
f 224/5/6 225/5/6 227/5/6
f 226/1/6 223/1/6 227/1/6
f 223/5/6 224/5/6 227/5/6
f 195/5/6 226/5/6 228/5/6
f 226/5/6 227/5/6 228/5/6
f 227/5/6 225/5/6 229/5/6
f 228/5/6 227/5/6 229/5/6
f 195/5/6 228/5/6 230/5/6
f 228/1/6 229/1/6 230/1/6
f 229/5/6 225/5/6 231/5/6
f 230/1/6 229/1/6 231/1/6
f 195/5/6 230/5/6 232/5/6
f 230/5/6 231/5/6 232/5/6
f 231/5/6 225/5/6 233/5/6
f 232/5/6 231/5/6 233/5/6
f 195/5/6 232/5/6 234/5/6
f 232/1/6 233/1/6 234/1/6
f 233/5/6 225/5/6 235/5/6
f 234/1/6 233/1/6 235/1/6
f 235/5/6 225/5/6 236/5/6
f 195/5/6 234/5/6 237/5/6
f 237/5/6 234/5/6 238/5/6
f 241/2/6 242/2/6 243/2/6
f 243/2/6 242/2/6 244/2/6
f 239/2/6 240/2/6 247/2/6
f 247/2/6 240/2/6 248/2/6
f 245/2/6 246/2/6 249/2/6
f 249/2/6 246/2/6 250/2/6
f 251/4/6 252/4/6 253/4/6
f 253/4/6 252/4/6 254/4/6
f 253/3/6 254/3/6 255/3/6
f 255/3/6 254/3/6 256/3/6
f 254/4/6 252/4/6 257/4/6
f 256/3/6 254/3/6 259/3/6
f 257/4/6 258/4/6 259/4/6
f 254/4/6 257/4/6 259/4/6
f 259/4/6 258/4/6 260/4/6
f 256/3/6 259/3/6 261/3/6
f 259/3/6 260/3/6 261/3/6
f 261/3/6 260/3/6 262/3/6
f 263/3/6 264/3/6 265/3/6
f 265/3/6 264/3/6 266/3/6
f 265/4/6 266/4/6 267/4/6
f 267/4/6 266/4/6 268/4/6
f 251/4/6 253/4/6 269/4/6
f 253/3/6 255/3/6 270/3/6
f 269/4/6 253/4/6 270/4/6
f 270/3/6 255/3/6 271/3/6
f 263/3/6 265/3/6 272/3/6
f 265/4/6 267/4/6 273/4/6
f 272/3/6 265/3/6 273/3/6
f 273/4/6 267/4/6 274/4/6
