# MagicaVoxel @ Ephtracy

# group
o 

# material
mtllib startconnectleft.mtl
usemtl palette

# normals
vn -1 0 0
vn 1 0 0
vn 0 0 1
vn 0 0 -1
vn 0 -1 0
vn 0 1 0

# texcoords
vt 0.958984 0.5
vt 0.982422 0.5
vt 0.986328 0.5
vt 0.994141 0.5

# verts
v -3.2 0.2 2.6
v -3.2 0.2 2.3
v -3.2 0.2 2.2
v -3.2 0.2 0.2
v -3.2 0.2 -0.2
v -3.2 0.2 -2.2
v -3.2 0.2 -2.4
v -3.2 0.2 -2.6
v -3.2 0.3 2.6
v -3.2 0.3 2.4
v -3.2 0.3 2.3
v -3.2 0.3 2.2
v -3.2 0.3 0.2
v -3.2 0.3 -0.2
v -3.2 0.3 -2.2
v -3.2 0.3 -2.4
v -3.2 0.3 -2.6
v -3.2 0.4 2.4
v -3.2 0.4 2.2
v -3.2 0.4 -2.2
v -3.2 0.4 -2.4
v -2.6 0.2 3.2
v -2.6 0.2 2.6
v -2.6 0.2 -2.6
v -2.6 0.2 -3.2
v -2.6 0.3 3.2
v -2.6 0.3 2.6
v -2.6 0.3 -2.6
v -2.6 0.3 -3.2
v -2.4 0.3 3
v -2.4 0.3 2.4
v -2.4 0.3 -2.4
v -2.4 0.3 -3.2
v -2.4 0.4 3
v -2.4 0.4 2.4
v -2.4 0.4 -2.4
v -2.4 0.4 -3.2
v -2.3 0.2 2.9
v -2.3 0.2 2.6
v -2.3 0.3 2.9
v -2.3 0.3 2.6
v -2.1 0.2 2.8
v -2.1 0.2 2.2
v -2.1 0.3 2.8
v -2.1 0.3 2.2
v 2.2 0.3 2.8
v 2.2 0.3 -3.2
v 2.2 0.4 2.8
v 2.2 0.4 -3.2
v 2.4 0.2 3
v 2.4 0.2 2.7
v 2.4 0.3 3
v 2.4 0.3 2.7
v -2.4 0.2 3
v -2.4 0.2 2.6
v -2.4 0.3 3
v -2.4 0.3 2.6
v -2.2 0.2 2.8
v -2.2 0.2 2.2
v -2.2 0.3 2.2
v -2.2 0.3 -2.2
v -2.2 0.3 -3.2
v -2.2 0.4 2.8
v -2.2 0.4 2.2
v -2.2 0.4 -2.2
v -2.2 0.4 -3.2
v 2.3 0.2 2.9
v 2.3 0.2 2.7
v 2.3 0.3 2.9
v 2.3 0.3 2.7
v 2.4 0.3 3
v 2.4 0.3 -3.2
v 2.4 0.4 3
v 2.4 0.4 -3.2
v 2.6 0.2 3.2
v 2.6 0.2 -3.2
v 2.6 0.3 3.2
v 2.6 0.3 -3.2
v -2.6 0.2 3.2
v -2.6 0.3 3.2
v 2.6 0.2 3.2
v 2.6 0.3 3.2
v -2.4 0.3 3
v -2.4 0.4 3
v 2.4 0.3 3
v 2.4 0.4 3
v -2.3 0.2 2.9
v -2.3 0.3 2.9
v 2.3 0.2 2.9
v 2.3 0.3 2.9
v 2.3 0.2 2.7
v 2.3 0.3 2.7
v 2.4 0.2 2.7
v 2.4 0.3 2.7
v -3.2 0.2 2.6
v -3.2 0.3 2.6
v -2.6 0.2 2.6
v -2.6 0.3 2.6
v -2.4 0.2 2.6
v -2.4 0.3 2.6
v -2.3 0.2 2.6
v -2.3 0.3 2.6
v -3.2 0.3 2.4
v -3.2 0.4 2.4
v -2.4 0.3 2.4
v -2.4 0.4 2.4
v -2.2 0.2 2.2
v -2.2 0.3 2.2
v -2.1 0.2 2.2
v -2.1 0.3 2.2
v -3.2 0.3 -2.2
v -3.2 0.4 -2.2
v -2.4 0.3 -2.2
v -2.2 0.3 -2.2
v -2.2 0.4 -2.2
v -2.4 0.2 3
v -2.4 0.3 3
v 2.4 0.2 3
v 2.4 0.3 3
v -2.2 0.2 2.8
v -2.2 0.4 2.8
v -2.1 0.2 2.8
v -2.1 0.3 2.8
v 2.2 0.3 2.8
v 2.2 0.4 2.8
v -3.2 0.3 2.2
v -3.2 0.4 2.2
v -2.4 0.3 2.2
v -2.2 0.3 2.2
v -2.2 0.4 2.2
v -3.2 0.3 -2.4
v -3.2 0.4 -2.4
v -2.4 0.3 -2.4
v -2.4 0.4 -2.4
v -3.2 0.2 -2.6
v -3.2 0.3 -2.6
v -2.6 0.2 -2.6
v -2.6 0.3 -2.6
v -2.6 0.2 -3.2
v -2.6 0.3 -3.2
v -2.4 0.2 -3.2
v -2.4 0.3 -3.2
v -2.4 0.4 -3.2
v -2.2 0.2 -3.2
v -2.2 0.3 -3.2
v -2.2 0.4 -3.2
v -0.2 0.2 -3.2
v -0.2 0.3 -3.2
v 0.2 0.2 -3.2
v 0.2 0.3 -3.2
v 2.2 0.2 -3.2
v 2.2 0.3 -3.2
v 2.2 0.4 -3.2
v 2.4 0.2 -3.2
v 2.4 0.3 -3.2
v 2.4 0.4 -3.2
v 2.6 0.2 -3.2
v 2.6 0.3 -3.2
v -2.6 0.2 3.2
v 2.6 0.2 3.2
v -2.4 0.2 3
v 2.4 0.2 3
v -2.3 0.2 2.9
v 2.3 0.2 2.9
v -2.2 0.2 2.8
v -2.1 0.2 2.8
v 2.2 0.2 2.8
v 2.3 0.2 2.7
v 2.4 0.2 2.7
v -3.2 0.2 2.6
v -2.6 0.2 2.6
v -2.4 0.2 2.6
v -2.3 0.2 2.6
v -3.1 0.2 2.4
v -2.3 0.2 2.4
v -3.2 0.2 2.3
v -3.1 0.2 2.3
v -3.2 0.2 2.2
v -2.4 0.2 2.2
v -2.2 0.2 2.2
v -2.1 0.2 2.2
v -2.8 0.2 2.1
v -2.6 0.2 2.1
v -2.4 0.2 1.8
v -2.2 0.2 1.8
v -2.8 0.2 1.7
v -2.6 0.2 1.7
v -2.4 0.2 1.4
v -2.2 0.2 1.4
v -2.8 0.2 1.3
v -2.6 0.2 1.3
v -2.4 0.2 1
v -2.2 0.2 1
v -2.8 0.2 0.9
v -2.6 0.2 0.9
v -2.4 0.2 0.6
v -2.2 0.2 0.6
v -2.8 0.2 0.5
v -2.6 0.2 0.5
v -3.2 0.2 0.2
v -2.8 0.2 0.2
v -2.4 0.2 0.2
v -2.2 0.2 0.2
v -3.2 0.2 -0.2
v -2.6 0.2 -0.2
v -2.4 0.2 -0.2
v -2.2 0.2 -0.2
v -2.4 0.2 -0.6
v -2.2 0.2 -0.6
v -2.4 0.2 -1
v -2.2 0.2 -1
v -2.4 0.2 -1.4
v -2.2 0.2 -1.4
v -2.4 0.2 -1.8
v -2.2 0.2 -1.8
v -3.2 0.2 -2.2
v -2.4 0.2 -2.2
v -2.2 0.2 -2.2
v -0.2 0.2 -2.2
v 0.2 0.2 -2.2
v -3.2 0.2 -2.4
v -2.4 0.2 -2.4
v -3.2 0.2 -2.6
v -2.6 0.2 -2.6
v -2.6 0.2 -3.2
v -2.4 0.2 -3.2
v -2.2 0.2 -3.2
v -0.2 0.2 -3.2
v 0.2 0.2 -3.2
v 2.2 0.2 -3.2
v 2.4 0.2 -3.2
v 2.6 0.2 -3.2
v -2.4 0.3 3
v 2.4 0.3 3
v -2.3 0.3 2.9
v 2.3 0.3 2.9
v 2.3 0.3 2.7
v 2.4 0.3 2.7
v -2.4 0.3 2.6
v -2.3 0.3 2.6
v -2.6 0.3 3.2
v 2.6 0.3 3.2
v -2.4 0.3 3
v 2.4 0.3 3
v -2.1 0.3 2.8
v 2.2 0.3 2.8
v -3.2 0.3 2.6
v -2.6 0.3 2.6
v -3.2 0.3 2.4
v -2.4 0.3 2.4
v -3.2 0.3 2.2
v -2.4 0.3 2.2
v -2.2 0.3 2.2
v -2.1 0.3 2.2
v -2.8 0.3 2.1
v -2.6 0.3 2.1
v -2.4 0.3 1.8
v -2.2 0.3 1.8
v -2.8 0.3 1.7
v -2.6 0.3 1.7
v -2.4 0.3 1.4
v -2.2 0.3 1.4
v -2.8 0.3 1.3
v -2.6 0.3 1.3
v -2.4 0.3 1
v -2.2 0.3 1
v -2.8 0.3 0.9
v -2.6 0.3 0.9
v -2.4 0.3 0.6
v -2.2 0.3 0.6
v -2.8 0.3 0.5
v -2.6 0.3 0.5
v -3.2 0.3 0.2
v -2.8 0.3 0.2
v -2.4 0.3 0.2
v -2.2 0.3 0.2
v -3.2 0.3 -0.2
v -2.6 0.3 -0.2
v -2.4 0.3 -0.2
v -2.2 0.3 -0.2
v -2.4 0.3 -0.6
v -2.2 0.3 -0.6
v -2.4 0.3 -1
v -2.2 0.3 -1
v -2.4 0.3 -1.4
v -2.2 0.3 -1.4
v -2.4 0.3 -1.8
v -2.2 0.3 -1.8
v -3.2 0.3 -2.2
v -2.4 0.3 -2.2
v -2.2 0.3 -2.2
v -0.2 0.3 -2.2
v 0.2 0.3 -2.2
v -3.2 0.3 -2.4
v -2.4 0.3 -2.4
v -3.2 0.3 -2.6
v -2.6 0.3 -2.6
v -2.6 0.3 -3.2
v -2.4 0.3 -3.2
v -2.2 0.3 -3.2
v -0.2 0.3 -3.2
v 0.2 0.3 -3.2
v 2.2 0.3 -3.2
v 2.4 0.3 -3.2
v 2.6 0.3 -3.2
v -2.4 0.4 3
v 2.4 0.4 3
v -2.2 0.4 2.8
v 2.2 0.4 2.8
v -3.2 0.4 2.4
v -2.4 0.4 2.4
v -3.2 0.4 2.2
v -2.2 0.4 2.2
v -3.2 0.4 -2.2
v -2.2 0.4 -2.2
v -3.2 0.4 -2.4
v -2.4 0.4 -2.4
v -2.4 0.4 -3.2
v -2.2 0.4 -3.2
v 2.2 0.4 -3.2
v 2.4 0.4 -3.2

# faces
f 9/3/1 2/3/1 1/3/1
f 10/3/1 2/3/1 9/3/1
f 11/2/1 3/2/1 2/2/1
f 11/3/1 2/3/1 10/3/1
f 12/4/1 4/4/1 3/4/1
f 12/2/1 3/2/1 11/2/1
f 13/1/1 5/1/1 4/1/1
f 13/4/1 4/4/1 12/4/1
f 14/4/1 6/4/1 5/4/1
f 14/1/1 5/1/1 13/1/1
f 15/2/1 7/2/1 6/2/1
f 15/4/1 6/4/1 14/4/1
f 16/3/1 8/3/1 7/3/1
f 16/2/1 7/2/1 15/2/1
f 17/3/1 8/3/1 16/3/1
f 18/2/1 11/2/1 10/2/1
f 18/2/1 12/2/1 11/2/1
f 19/2/1 12/2/1 18/2/1
f 20/2/1 16/2/1 15/2/1
f 21/2/1 16/2/1 20/2/1
f 26/3/1 23/3/1 22/3/1
f 27/3/1 23/3/1 26/3/1
f 28/3/1 25/3/1 24/3/1
f 29/3/1 25/3/1 28/3/1
f 34/2/1 31/2/1 30/2/1
f 35/2/1 31/2/1 34/2/1
f 36/2/1 33/2/1 32/2/1
f 37/2/1 33/2/1 36/2/1
f 40/2/1 39/2/1 38/2/1
f 41/2/1 39/2/1 40/2/1
f 44/4/1 43/4/1 42/4/1
f 45/4/1 43/4/1 44/4/1
f 48/2/1 47/2/1 46/2/1
f 49/2/1 47/2/1 48/2/1
f 52/3/1 51/3/1 50/3/1
f 53/3/1 51/3/1 52/3/1
f 54/3/2 55/3/2 56/3/2
f 56/3/2 55/3/2 57/3/2
f 58/2/2 59/2/2 60/2/2
f 58/2/2 60/2/2 63/2/2
f 63/2/2 60/2/2 64/2/2
f 61/2/2 62/2/2 65/2/2
f 65/2/2 62/2/2 66/2/2
f 67/2/2 68/2/2 69/2/2
f 69/2/2 68/2/2 70/2/2
f 71/2/2 72/2/2 73/2/2
f 73/2/2 72/2/2 74/2/2
f 75/3/2 76/3/2 77/3/2
f 77/3/2 76/3/2 78/3/2
f 81/3/3 80/3/3 79/3/3
f 82/3/3 80/3/3 81/3/3
f 85/2/3 84/2/3 83/2/3
f 86/2/3 84/2/3 85/2/3
f 89/2/3 88/2/3 87/2/3
f 90/2/3 88/2/3 89/2/3
f 93/2/3 92/2/3 91/2/3
f 94/2/3 92/2/3 93/2/3
f 97/3/3 96/3/3 95/3/3
f 98/3/3 96/3/3 97/3/3
f 101/3/3 100/3/3 99/3/3
f 102/3/3 100/3/3 101/3/3
f 105/2/3 104/2/3 103/2/3
f 106/2/3 104/2/3 105/2/3
f 109/4/3 108/4/3 107/4/3
f 110/4/3 108/4/3 109/4/3
f 113/2/3 112/2/3 111/2/3
f 114/2/3 112/2/3 113/2/3
f 115/2/3 112/2/3 114/2/3
f 116/3/4 117/3/4 118/3/4
f 118/3/4 117/3/4 119/3/4
f 120/2/4 121/2/4 122/2/4
f 122/2/4 121/2/4 123/2/4
f 123/2/4 121/2/4 124/2/4
f 124/2/4 121/2/4 125/2/4
f 126/2/4 127/2/4 128/2/4
f 128/2/4 127/2/4 129/2/4
f 129/2/4 127/2/4 130/2/4
f 131/2/4 132/2/4 133/2/4
f 133/2/4 132/2/4 134/2/4
f 135/3/4 136/3/4 137/3/4
f 137/3/4 136/3/4 138/3/4
f 139/3/4 140/3/4 141/3/4
f 141/3/4 140/3/4 142/3/4
f 141/2/4 142/2/4 144/2/4
f 142/2/4 143/2/4 144/2/4
f 144/2/4 143/2/4 145/2/4
f 145/2/4 143/2/4 146/2/4
f 144/4/4 145/4/4 147/4/4
f 147/4/4 145/4/4 148/4/4
f 147/1/4 148/1/4 149/1/4
f 149/1/4 148/1/4 150/1/4
f 149/4/4 150/4/4 151/4/4
f 151/4/4 150/4/4 152/4/4
f 151/2/4 152/2/4 154/2/4
f 152/2/4 153/2/4 154/2/4
f 154/2/4 153/2/4 155/2/4
f 155/2/4 153/2/4 156/2/4
f 154/3/4 155/3/4 157/3/4
f 157/3/4 155/3/4 158/3/4
f 161/3/5 160/3/5 159/3/5
f 162/3/5 160/3/5 161/3/5
f 165/2/5 164/2/5 163/2/5
f 166/2/5 164/2/5 165/2/5
f 167/2/5 164/2/5 166/2/5
f 168/2/5 164/2/5 167/2/5
f 169/3/5 160/3/5 162/3/5
f 171/3/5 161/3/5 159/3/5
f 172/3/5 161/3/5 171/3/5
f 173/2/5 165/2/5 163/2/5
f 174/3/5 172/3/5 171/3/5
f 174/3/5 173/3/5 172/3/5
f 174/3/5 171/3/5 170/3/5
f 175/2/5 165/2/5 173/2/5
f 175/3/5 173/3/5 174/3/5
f 176/3/5 174/3/5 170/3/5
f 177/2/5 175/2/5 174/2/5
f 177/3/5 174/3/5 176/3/5
f 178/2/5 177/2/5 176/2/5
f 179/2/5 175/2/5 177/2/5
f 179/2/5 177/2/5 178/2/5
f 180/2/5 165/2/5 175/2/5
f 180/2/5 175/2/5 179/2/5
f 181/4/5 167/4/5 166/4/5
f 182/4/5 179/4/5 178/4/5
f 183/4/5 179/4/5 182/4/5
f 184/1/5 180/1/5 179/1/5
f 184/4/5 179/4/5 183/4/5
f 185/4/5 181/4/5 180/4/5
f 185/1/5 180/1/5 184/1/5
f 186/1/5 183/1/5 182/1/5
f 186/4/5 182/4/5 178/4/5
f 187/4/5 184/4/5 183/4/5
f 187/1/5 183/1/5 186/1/5
f 187/4/5 185/4/5 184/4/5
f 188/4/5 187/4/5 186/4/5
f 188/4/5 185/4/5 187/4/5
f 189/4/5 181/4/5 185/4/5
f 189/4/5 185/4/5 188/4/5
f 190/4/5 186/4/5 178/4/5
f 190/4/5 188/4/5 186/4/5
f 191/4/5 188/4/5 190/4/5
f 192/1/5 189/1/5 188/1/5
f 192/4/5 188/4/5 191/4/5
f 193/4/5 181/4/5 189/4/5
f 193/1/5 189/1/5 192/1/5
f 194/1/5 191/1/5 190/1/5
f 194/4/5 190/4/5 178/4/5
f 195/4/5 192/4/5 191/4/5
f 195/1/5 191/1/5 194/1/5
f 195/4/5 193/4/5 192/4/5
f 196/4/5 195/4/5 194/4/5
f 196/4/5 193/4/5 195/4/5
f 197/4/5 181/4/5 193/4/5
f 197/4/5 193/4/5 196/4/5
f 198/4/5 194/4/5 178/4/5
f 198/4/5 196/4/5 194/4/5
f 199/4/5 196/4/5 198/4/5
f 200/4/5 198/4/5 178/4/5
f 201/1/5 199/1/5 198/1/5
f 201/4/5 198/4/5 200/4/5
f 202/1/5 197/1/5 196/1/5
f 202/4/5 196/4/5 199/4/5
f 203/4/5 181/4/5 197/4/5
f 203/1/5 197/1/5 202/1/5
f 204/1/5 201/1/5 200/1/5
f 205/4/5 202/4/5 199/4/5
f 205/1/5 201/1/5 204/1/5
f 205/1/5 199/1/5 201/1/5
f 205/4/5 203/4/5 202/4/5
f 206/4/5 203/4/5 205/4/5
f 207/4/5 181/4/5 203/4/5
f 207/4/5 203/4/5 206/4/5
f 208/4/5 206/4/5 205/4/5
f 208/4/5 205/4/5 204/4/5
f 208/1/5 207/1/5 206/1/5
f 209/4/5 181/4/5 207/4/5
f 209/1/5 207/1/5 208/1/5
f 210/4/5 208/4/5 204/4/5
f 210/4/5 209/4/5 208/4/5
f 211/4/5 181/4/5 209/4/5
f 211/4/5 209/4/5 210/4/5
f 212/4/5 210/4/5 204/4/5
f 212/1/5 211/1/5 210/1/5
f 213/4/5 181/4/5 211/4/5
f 213/1/5 211/1/5 212/1/5
f 214/4/5 212/4/5 204/4/5
f 214/4/5 213/4/5 212/4/5
f 215/4/5 181/4/5 213/4/5
f 215/4/5 213/4/5 214/4/5
f 216/4/5 214/4/5 204/4/5
f 217/1/5 215/1/5 214/1/5
f 217/4/5 214/4/5 216/4/5
f 218/4/5 181/4/5 215/4/5
f 218/1/5 215/1/5 217/1/5
f 219/4/5 167/4/5 181/4/5
f 219/4/5 181/4/5 218/4/5
f 220/4/5 167/4/5 219/4/5
f 221/2/5 218/2/5 217/2/5
f 221/2/5 217/2/5 216/2/5
f 222/2/5 218/2/5 221/2/5
f 223/3/5 222/3/5 221/3/5
f 224/3/5 222/3/5 223/3/5
f 225/3/5 222/3/5 224/3/5
f 226/2/5 218/2/5 222/2/5
f 226/3/5 222/3/5 225/3/5
f 227/4/5 219/4/5 218/4/5
f 227/2/5 218/2/5 226/2/5
f 228/1/5 220/1/5 219/1/5
f 228/4/5 219/4/5 227/4/5
f 229/4/5 167/4/5 220/4/5
f 229/1/5 220/1/5 228/1/5
f 230/2/5 169/2/5 168/2/5
f 230/4/5 167/4/5 229/4/5
f 230/2/5 168/2/5 167/2/5
f 231/3/5 160/3/5 169/3/5
f 231/2/5 169/2/5 230/2/5
f 232/3/5 160/3/5 231/3/5
f 235/2/5 234/2/5 233/2/5
f 236/2/5 234/2/5 235/2/5
f 237/2/5 234/2/5 236/2/5
f 238/2/5 234/2/5 237/2/5
f 239/2/5 235/2/5 233/2/5
f 240/2/5 235/2/5 239/2/5
f 241/3/6 242/3/6 243/3/6
f 243/3/6 242/3/6 244/3/6
f 241/3/6 243/3/6 248/3/6
f 247/3/6 248/3/6 249/3/6
f 248/3/6 243/3/6 250/3/6
f 249/3/6 248/3/6 250/3/6
f 245/4/6 246/4/6 254/4/6
f 251/4/6 252/4/6 255/4/6
f 255/4/6 252/4/6 256/4/6
f 252/1/6 253/1/6 257/1/6
f 256/4/6 252/4/6 257/4/6
f 253/4/6 254/4/6 258/4/6
f 257/1/6 253/1/6 258/1/6
f 255/1/6 256/1/6 259/1/6
f 251/4/6 255/4/6 259/4/6
f 256/4/6 257/4/6 260/4/6
f 259/1/6 256/1/6 260/1/6
f 257/4/6 258/4/6 260/4/6
f 259/4/6 260/4/6 261/4/6
f 260/4/6 258/4/6 261/4/6
f 258/4/6 254/4/6 262/4/6
f 261/4/6 258/4/6 262/4/6
f 259/4/6 261/4/6 263/4/6
f 251/4/6 259/4/6 263/4/6
f 263/4/6 261/4/6 264/4/6
f 261/1/6 262/1/6 265/1/6
f 264/4/6 261/4/6 265/4/6
f 262/4/6 254/4/6 266/4/6
f 265/1/6 262/1/6 266/1/6
f 263/1/6 264/1/6 267/1/6
f 251/4/6 263/4/6 267/4/6
f 264/4/6 265/4/6 268/4/6
f 267/1/6 264/1/6 268/1/6
f 265/4/6 266/4/6 268/4/6
f 267/4/6 268/4/6 269/4/6
f 268/4/6 266/4/6 269/4/6
f 266/4/6 254/4/6 270/4/6
f 269/4/6 266/4/6 270/4/6
f 251/4/6 267/4/6 271/4/6
f 267/4/6 269/4/6 271/4/6
f 271/4/6 269/4/6 272/4/6
f 251/4/6 271/4/6 273/4/6
f 271/1/6 272/1/6 274/1/6
f 273/4/6 271/4/6 274/4/6
f 269/1/6 270/1/6 275/1/6
f 272/4/6 269/4/6 275/4/6
f 270/4/6 254/4/6 276/4/6
f 275/1/6 270/1/6 276/1/6
f 273/1/6 274/1/6 277/1/6
f 272/4/6 275/4/6 278/4/6
f 277/1/6 274/1/6 278/1/6
f 274/1/6 272/1/6 278/1/6
f 275/4/6 276/4/6 278/4/6
f 278/4/6 276/4/6 279/4/6
f 276/4/6 254/4/6 280/4/6
f 279/4/6 276/4/6 280/4/6
f 278/4/6 279/4/6 281/4/6
f 277/4/6 278/4/6 281/4/6
f 279/1/6 280/1/6 281/1/6
f 280/4/6 254/4/6 282/4/6
f 281/1/6 280/1/6 282/1/6
f 277/4/6 281/4/6 283/4/6
f 281/4/6 282/4/6 283/4/6
f 282/4/6 254/4/6 284/4/6
f 283/4/6 282/4/6 284/4/6
f 277/4/6 283/4/6 285/4/6
f 283/1/6 284/1/6 285/1/6
f 284/4/6 254/4/6 286/4/6
f 285/1/6 284/1/6 286/1/6
f 277/4/6 285/4/6 287/4/6
f 285/4/6 286/4/6 287/4/6
f 286/4/6 254/4/6 288/4/6
f 287/4/6 286/4/6 288/4/6
f 277/4/6 287/4/6 289/4/6
f 287/1/6 288/1/6 290/1/6
f 289/4/6 287/4/6 290/4/6
f 288/4/6 254/4/6 291/4/6
f 290/1/6 288/1/6 291/1/6
f 254/4/6 246/4/6 292/4/6
f 291/4/6 254/4/6 292/4/6
f 292/4/6 246/4/6 293/4/6
f 294/3/6 295/3/6 296/3/6
f 296/3/6 295/3/6 297/3/6
f 297/3/6 295/3/6 298/3/6
f 298/3/6 295/3/6 299/3/6
f 291/4/6 292/4/6 300/4/6
f 292/1/6 293/1/6 301/1/6
f 300/4/6 292/4/6 301/4/6
f 293/4/6 246/4/6 302/4/6
f 301/1/6 293/1/6 302/1/6
f 302/4/6 246/4/6 303/4/6
f 244/3/6 242/3/6 304/3/6
f 304/3/6 242/3/6 305/3/6
f 306/2/6 307/2/6 308/2/6
f 308/2/6 307/2/6 309/2/6
f 306/2/6 308/2/6 311/2/6
f 310/2/6 311/2/6 312/2/6
f 311/2/6 308/2/6 313/2/6
f 312/2/6 311/2/6 313/2/6
f 314/2/6 315/2/6 316/2/6
f 316/2/6 315/2/6 317/2/6
f 317/2/6 315/2/6 318/2/6
f 318/2/6 315/2/6 319/2/6
f 309/2/6 307/2/6 320/2/6
f 320/2/6 307/2/6 321/2/6
