# MagicaVoxel @ Ephtracy

# group
o 

# material
mtllib startconnec6r.mtl
usemtl palette

# normals
vn -1 0 0
vn 1 0 0
vn 0 0 1
vn 0 0 -1
vn 0 -1 0
vn 0 1 0

# texcoords
vt 0.958984 0.5
vt 0.974609 0.5
vt 0.982422 0.5
vt 0.986328 0.5
vt 0.994141 0.5

# verts
v -3.2 0 3.2
v -3.2 0 2.6
v -3.2 0 2.2
v -3.2 0 0.2
v -3.2 0 -0.2
v -3.2 0 -2.2
v -3.2 0 -2.6
v -3.2 0 -3.2
v -3.2 0.1 2.3
v -3.2 0.1 2.2
v -3.2 0.1 0.2
v -3.2 0.1 -0.2
v -3.2 0.1 -2.2
v -3.2 0.1 -2.4
v -3.2 0.2 3.2
v -3.2 0.2 2.6
v -3.2 0.2 2.4
v -3.2 0.2 2.3
v -3.2 0.2 -2.6
v -3.2 0.2 -3.2
v -3.2 0.3 2.6
v -3.2 0.3 2.4
v -3.2 0.3 2.2
v -3.2 0.3 -2.2
v -3.2 0.3 -2.4
v -3.2 0.3 -2.6
v -2.6 0.2 3.2
v -2.6 0.2 2.6
v -2.6 0.2 -2.6
v -2.6 0.2 -3.2
v -2.6 0.3 3.2
v -2.6 0.3 2.6
v -2.6 0.3 -2.6
v -2.6 0.3 -3.2
v 2.2 0.1 2.8
v 2.2 0.1 -3.2
v 2.2 0.3 2.8
v 2.2 0.3 -3.2
v -2.2 0.1 2.8
v -2.2 0.1 2.2
v -2.2 0.1 -2.2
v -2.2 0.1 -3.2
v -2.2 0.3 2.8
v -2.2 0.3 2.2
v -2.2 0.3 -2.2
v -2.2 0.3 -3.2
v 2.6 0.2 3.2
v 2.6 0.2 -3.2
v 2.6 0.3 3.2
v 2.6 0.3 -3.2
v 3.2 0 3.2
v 3.2 0 2.6
v 3.2 0 2.4
v 3.2 0 2.2
v 3.2 0 0.2
v 3.2 0 -0.2
v 3.2 0 -2.2
v 3.2 0 -2.4
v 3.2 0 -2.6
v 3.2 0 -3.2
v 3.2 0.1 2.6
v 3.2 0.1 2.4
v 3.2 0.1 2.2
v 3.2 0.1 0.2
v 3.2 0.1 -0.2
v 3.2 0.1 -2.2
v 3.2 0.1 -2.4
v 3.2 0.1 -2.6
v 3.2 0.2 3.2
v 3.2 0.2 -3.2
v -3.2 0 3.2
v -3.2 0.2 3.2
v -2.6 0.2 3.2
v -2.6 0.3 3.2
v 2.6 0.2 3.2
v 2.6 0.3 3.2
v 3.2 0 3.2
v 3.2 0.2 3.2
v -3.2 0.2 2.6
v -3.2 0.3 2.6
v -2.6 0.2 2.6
v -2.6 0.3 2.6
v -3.2 0.1 -2.2
v -3.2 0.3 -2.2
v -2.4 0.1 -2.2
v -2.2 0.1 -2.2
v -2.2 0.3 -2.2
v -2.2 0.1 2.8
v -2.2 0.3 2.8
v 2.2 0.1 2.8
v 2.2 0.3 2.8
v -3.2 0.1 2.2
v -3.2 0.3 2.2
v -2.4 0.1 2.2
v -2.2 0.1 2.2
v -2.2 0.3 2.2
v -3.2 0.2 -2.6
v -3.2 0.3 -2.6
v -2.6 0.2 -2.6
v -2.6 0.3 -2.6
v -3.2 0 -3.2
v -3.2 0.2 -3.2
v -2.6 0.2 -3.2
v -2.6 0.3 -3.2
v -2.4 0.1 -3.2
v -2.4 0.2 -3.2
v -2.4 0.3 -3.2
v -2.2 0 -3.2
v -2.2 0.1 -3.2
v -2.2 0.3 -3.2
v -0.2 0 -3.2
v -0.2 0.1 -3.2
v 0.2 0 -3.2
v 0.2 0.1 -3.2
v 2.2 0 -3.2
v 2.2 0.1 -3.2
v 2.2 0.3 -3.2
v 2.4 0.1 -3.2
v 2.4 0.2 -3.2
v 2.4 0.3 -3.2
v 2.6 0.2 -3.2
v 2.6 0.3 -3.2
v 3.2 0 -3.2
v 3.2 0.2 -3.2
v -3.2 0 3.2
v 3.2 0 3.2
v -2.2 0 2.8
v 2.2 0 2.8
v -3.2 0 2.6
v -2.2 0 2.6
v 2.2 0 2.6
v 3.2 0 2.6
v -3.1 0 2.4
v -2.2 0 2.4
v 2.2 0 2.4
v 3.2 0 2.4
v -3.2 0 2.2
v -3.1 0 2.2
v -2.4 0 2.2
v -2.2 0 2.2
v 2.2 0 2.2
v 3.2 0 2.2
v -2.8 0 2.1
v -2.6 0 2.1
v -2.4 0 1.8
v -2.2 0 1.8
v -2.8 0 1.7
v -2.6 0 1.7
v -2.4 0 1.4
v -2.2 0 1.4
v -2.8 0 1.3
v -2.6 0 1.3
v -2.4 0 1
v -2.2 0 1
v -2.8 0 0.9
v -2.6 0 0.9
v -2.4 0 0.6
v -2.2 0 0.6
v -2.8 0 0.5
v -2.6 0 0.5
v -3.2 0 0.2
v -2.8 0 0.2
v -2.4 0 0.2
v -2.2 0 0.2
v 2.2 0 0.2
v 3.2 0 0.2
v -3.2 0 -0.2
v -2.6 0 -0.2
v -2.4 0 -0.2
v -2.2 0 -0.2
v 2.2 0 -0.2
v 3.2 0 -0.2
v -2.4 0 -0.6
v -2.2 0 -0.6
v -2.4 0 -1
v -2.2 0 -1
v -2.4 0 -1.4
v -2.2 0 -1.4
v -2.4 0 -1.8
v -2.2 0 -1.8
v -3.2 0 -2.2
v -3.1 0 -2.2
v -2.4 0 -2.2
v -2.2 0 -2.2
v -0.2 0 -2.2
v 0.2 0 -2.2
v 2.2 0 -2.2
v 3.2 0 -2.2
v -3.1 0 -2.4
v -2.2 0 -2.4
v 2.2 0 -2.4
v 3.2 0 -2.4
v -3.2 0 -2.6
v -2.2 0 -2.6
v 2.2 0 -2.6
v 3.2 0 -2.6
v -3.2 0 -3.2
v -2.2 0 -3.2
v -0.2 0 -3.2
v 0.2 0 -3.2
v 2.2 0 -3.2
v 3.2 0 -3.2
v -2.2 0.1 2.8
v 2.2 0.1 2.8
v -3.2 0.1 2.2
v -2.4 0.1 2.2
v -2.2 0.1 2.2
v -2.8 0.1 2.1
v -2.6 0.1 2.1
v -2.4 0.1 1.8
v -2.2 0.1 1.8
v -2.8 0.1 1.7
v -2.6 0.1 1.7
v -2.4 0.1 1.4
v -2.2 0.1 1.4
v -2.8 0.1 1.3
v -2.6 0.1 1.3
v -2.4 0.1 1
v -2.2 0.1 1
v -2.8 0.1 0.9
v -2.6 0.1 0.9
v -2.4 0.1 0.6
v -2.2 0.1 0.6
v -2.8 0.1 0.5
v -2.6 0.1 0.5
v -3.2 0.1 0.2
v -2.8 0.1 0.2
v -2.4 0.1 0.2
v -2.2 0.1 0.2
v -3.2 0.1 -0.2
v -2.6 0.1 -0.2
v -2.4 0.1 -0.2
v -2.2 0.1 -0.2
v -2.4 0.1 -0.6
v -2.2 0.1 -0.6
v -2.4 0.1 -1
v -2.2 0.1 -1
v -2.4 0.1 -1.4
v -2.2 0.1 -1.4
v -2.4 0.1 -1.8
v -2.2 0.1 -1.8
v -3.2 0.1 -2.2
v -2.4 0.1 -2.2
v -2.2 0.1 -2.2
v -0.2 0.1 -2.2
v 0.2 0.1 -2.2
v -2.2 0.1 -3.2
v -0.2 0.1 -3.2
v 0.2 0.1 -3.2
v 2.2 0.1 -3.2
v -3.2 0.2 3.2
v -2.6 0.2 3.2
v 2.6 0.2 3.2
v 3.2 0.2 3.2
v -3.2 0.2 2.6
v -2.6 0.2 2.6
v -3.2 0.2 -2.6
v -2.6 0.2 -2.6
v -3.2 0.2 -3.2
v -2.6 0.2 -3.2
v 2.6 0.2 -3.2
v 3.2 0.2 -3.2
v -2.6 0.3 3.2
v 2.6 0.3 3.2
v -2.4 0.3 3
v 2.4 0.3 3
v -2.2 0.3 2.8
v 2.2 0.3 2.8
v -3.2 0.3 2.6
v -2.6 0.3 2.6
v -3.2 0.3 2.4
v -2.4 0.3 2.4
v -3.2 0.3 2.2
v -2.2 0.3 2.2
v -3.2 0.3 -2.2
v -2.2 0.3 -2.2
v -3.2 0.3 -2.4
v -2.4 0.3 -2.4
v -3.2 0.3 -2.6
v -2.6 0.3 -2.6
v -2.6 0.3 -3.2
v -2.4 0.3 -3.2
v -2.2 0.3 -3.2
v 2.2 0.3 -3.2
v 2.4 0.3 -3.2
v 2.6 0.3 -3.2

# faces
f 9/4/1 3/4/1 2/4/1
f 10/5/1 4/5/1 3/5/1
f 10/4/1 3/4/1 9/4/1
f 11/1/1 5/1/1 4/1/1
f 11/5/1 4/5/1 10/5/1
f 12/5/1 6/5/1 5/5/1
f 12/1/1 5/1/1 11/1/1
f 13/4/1 7/4/1 6/4/1
f 13/5/1 6/5/1 12/5/1
f 14/4/1 7/4/1 13/4/1
f 15/2/1 2/2/1 1/2/1
f 16/4/1 9/4/1 2/4/1
f 16/2/1 2/2/1 15/2/1
f 17/4/1 9/4/1 16/4/1
f 18/3/1 10/3/1 9/3/1
f 18/4/1 9/4/1 17/4/1
f 19/4/1 7/4/1 14/4/1
f 19/2/1 8/2/1 7/2/1
f 20/2/1 8/2/1 19/2/1
f 21/4/1 17/4/1 16/4/1
f 22/3/1 18/3/1 17/3/1
f 22/4/1 17/4/1 21/4/1
f 23/3/1 10/3/1 18/3/1
f 23/3/1 18/3/1 22/3/1
f 24/3/1 14/3/1 13/3/1
f 25/4/1 19/4/1 14/4/1
f 25/3/1 14/3/1 24/3/1
f 26/4/1 19/4/1 25/4/1
f 31/4/1 28/4/1 27/4/1
f 32/4/1 28/4/1 31/4/1
f 33/4/1 30/4/1 29/4/1
f 34/4/1 30/4/1 33/4/1
f 37/3/1 36/3/1 35/3/1
f 38/3/1 36/3/1 37/3/1
f 39/3/2 40/3/2 43/3/2
f 43/3/2 40/3/2 44/3/2
f 41/3/2 42/3/2 45/3/2
f 45/3/2 42/3/2 46/3/2
f 47/4/2 48/4/2 49/4/2
f 49/4/2 48/4/2 50/4/2
f 51/2/2 52/2/2 61/2/2
f 52/4/2 53/4/2 61/4/2
f 53/3/2 54/3/2 62/3/2
f 61/4/2 53/4/2 62/4/2
f 54/5/2 55/5/2 63/5/2
f 62/3/2 54/3/2 63/3/2
f 55/1/2 56/1/2 64/1/2
f 63/5/2 55/5/2 64/5/2
f 56/5/2 57/5/2 65/5/2
f 64/1/2 56/1/2 65/1/2
f 57/3/2 58/3/2 66/3/2
f 65/5/2 57/5/2 66/5/2
f 58/4/2 59/4/2 67/4/2
f 66/3/2 58/3/2 67/3/2
f 59/2/2 60/2/2 68/2/2
f 67/4/2 59/4/2 68/4/2
f 66/2/2 67/2/2 69/2/2
f 65/2/2 66/2/2 69/2/2
f 67/2/2 68/2/2 69/2/2
f 64/2/2 65/2/2 69/2/2
f 63/2/2 64/2/2 69/2/2
f 62/2/2 63/2/2 69/2/2
f 61/2/2 62/2/2 69/2/2
f 51/2/2 61/2/2 69/2/2
f 68/2/2 60/2/2 70/2/2
f 69/2/2 68/2/2 70/2/2
f 73/2/3 72/2/3 71/2/3
f 75/2/3 73/2/3 71/2/3
f 75/4/3 74/4/3 73/4/3
f 76/4/3 74/4/3 75/4/3
f 77/2/3 75/2/3 71/2/3
f 78/2/3 75/2/3 77/2/3
f 81/4/3 80/4/3 79/4/3
f 82/4/3 80/4/3 81/4/3
f 85/3/3 84/3/3 83/3/3
f 86/3/3 84/3/3 85/3/3
f 87/3/3 84/3/3 86/3/3
f 88/3/4 89/3/4 90/3/4
f 90/3/4 89/3/4 91/3/4
f 92/3/4 93/3/4 94/3/4
f 94/3/4 93/3/4 95/3/4
f 95/3/4 93/3/4 96/3/4
f 97/4/4 98/4/4 99/4/4
f 99/4/4 98/4/4 100/4/4
f 101/2/4 102/2/4 103/2/4
f 101/2/4 103/2/4 105/2/4
f 103/4/4 104/4/4 106/4/4
f 105/2/4 103/2/4 106/2/4
f 106/4/4 104/4/4 107/4/4
f 101/2/4 105/2/4 108/2/4
f 105/3/4 106/3/4 109/3/4
f 108/2/4 105/2/4 109/2/4
f 106/3/4 107/3/4 109/3/4
f 109/3/4 107/3/4 110/3/4
f 108/5/4 109/5/4 111/5/4
f 111/5/4 109/5/4 112/5/4
f 111/1/4 112/1/4 113/1/4
f 113/1/4 112/1/4 114/1/4
f 113/5/4 114/5/4 115/5/4
f 115/5/4 114/5/4 116/5/4
f 115/2/4 116/2/4 118/2/4
f 116/3/4 117/3/4 118/3/4
f 118/3/4 117/3/4 119/3/4
f 119/3/4 117/3/4 120/3/4
f 118/2/4 119/2/4 121/2/4
f 119/4/4 120/4/4 121/4/4
f 121/4/4 120/4/4 122/4/4
f 115/2/4 118/2/4 123/2/4
f 118/2/4 121/2/4 123/2/4
f 123/2/4 121/2/4 124/2/4
f 127/2/5 126/2/5 125/2/5
f 128/2/5 126/2/5 127/2/5
f 129/2/5 127/2/5 125/2/5
f 130/5/5 128/5/5 127/5/5
f 130/2/5 127/2/5 129/2/5
f 131/2/5 126/2/5 128/2/5
f 131/5/5 128/5/5 130/5/5
f 132/2/5 126/2/5 131/2/5
f 133/4/5 130/4/5 129/4/5
f 134/5/5 131/5/5 130/5/5
f 134/4/5 130/4/5 133/4/5
f 135/4/5 132/4/5 131/4/5
f 135/5/5 131/5/5 134/5/5
f 136/4/5 132/4/5 135/4/5
f 137/4/5 133/4/5 129/4/5
f 138/3/5 134/3/5 133/3/5
f 138/4/5 133/4/5 137/4/5
f 139/3/5 134/3/5 138/3/5
f 140/5/5 135/5/5 134/5/5
f 140/3/5 134/3/5 139/3/5
f 141/3/5 136/3/5 135/3/5
f 141/5/5 135/5/5 140/5/5
f 142/3/5 136/3/5 141/3/5
f 143/5/5 139/5/5 138/5/5
f 143/5/5 138/5/5 137/5/5
f 144/5/5 139/5/5 143/5/5
f 145/1/5 140/1/5 139/1/5
f 145/5/5 139/5/5 144/5/5
f 146/5/5 142/5/5 141/5/5
f 146/1/5 140/1/5 145/1/5
f 146/5/5 141/5/5 140/5/5
f 147/1/5 144/1/5 143/1/5
f 147/5/5 143/5/5 137/5/5
f 148/5/5 145/5/5 144/5/5
f 148/1/5 144/1/5 147/1/5
f 148/5/5 146/5/5 145/5/5
f 149/5/5 148/5/5 147/5/5
f 149/5/5 146/5/5 148/5/5
f 150/5/5 142/5/5 146/5/5
f 150/5/5 146/5/5 149/5/5
f 151/5/5 149/5/5 147/5/5
f 151/5/5 147/5/5 137/5/5
f 152/5/5 149/5/5 151/5/5
f 153/1/5 150/1/5 149/1/5
f 153/5/5 149/5/5 152/5/5
f 154/5/5 142/5/5 150/5/5
f 154/1/5 150/1/5 153/1/5
f 155/1/5 152/1/5 151/1/5
f 155/5/5 151/5/5 137/5/5
f 156/5/5 153/5/5 152/5/5
f 156/1/5 152/1/5 155/1/5
f 156/5/5 154/5/5 153/5/5
f 157/5/5 156/5/5 155/5/5
f 157/5/5 154/5/5 156/5/5
f 158/5/5 142/5/5 154/5/5
f 158/5/5 154/5/5 157/5/5
f 159/5/5 155/5/5 137/5/5
f 159/5/5 157/5/5 155/5/5
f 160/5/5 157/5/5 159/5/5
f 161/5/5 159/5/5 137/5/5
f 162/1/5 160/1/5 159/1/5
f 162/5/5 159/5/5 161/5/5
f 163/1/5 158/1/5 157/1/5
f 163/5/5 157/5/5 160/5/5
f 164/5/5 142/5/5 158/5/5
f 164/1/5 158/1/5 163/1/5
f 165/5/5 142/5/5 164/5/5
f 166/5/5 142/5/5 165/5/5
f 167/1/5 162/1/5 161/1/5
f 168/5/5 163/5/5 160/5/5
f 168/1/5 162/1/5 167/1/5
f 168/1/5 160/1/5 162/1/5
f 168/5/5 164/5/5 163/5/5
f 168/5/5 165/5/5 164/5/5
f 169/5/5 165/5/5 168/5/5
f 170/5/5 165/5/5 169/5/5
f 171/1/5 166/1/5 165/1/5
f 171/5/5 165/5/5 170/5/5
f 172/1/5 166/1/5 171/1/5
f 173/1/5 170/1/5 169/1/5
f 173/5/5 168/5/5 167/5/5
f 173/5/5 169/5/5 168/5/5
f 174/5/5 172/5/5 171/5/5
f 174/1/5 170/1/5 173/1/5
f 174/5/5 171/5/5 170/5/5
f 175/5/5 173/5/5 167/5/5
f 175/5/5 174/5/5 173/5/5
f 176/5/5 172/5/5 174/5/5
f 176/5/5 174/5/5 175/5/5
f 177/5/5 175/5/5 167/5/5
f 177/1/5 176/1/5 175/1/5
f 178/5/5 172/5/5 176/5/5
f 178/1/5 176/1/5 177/1/5
f 179/5/5 177/5/5 167/5/5
f 179/5/5 178/5/5 177/5/5
f 180/5/5 172/5/5 178/5/5
f 180/5/5 178/5/5 179/5/5
f 181/5/5 179/5/5 167/5/5
f 182/5/5 179/5/5 181/5/5
f 183/1/5 180/1/5 179/1/5
f 183/5/5 179/5/5 182/5/5
f 184/5/5 172/5/5 180/5/5
f 184/1/5 180/1/5 183/1/5
f 185/5/5 172/5/5 184/5/5
f 186/5/5 172/5/5 185/5/5
f 187/5/5 172/5/5 186/5/5
f 188/5/5 172/5/5 187/5/5
f 189/3/5 183/3/5 182/3/5
f 189/4/5 182/4/5 181/4/5
f 189/3/5 184/3/5 183/3/5
f 190/5/5 185/5/5 184/5/5
f 190/3/5 184/3/5 189/3/5
f 191/3/5 188/3/5 187/3/5
f 191/5/5 187/5/5 186/5/5
f 192/3/5 188/3/5 191/3/5
f 193/4/5 190/4/5 189/4/5
f 193/4/5 189/4/5 181/4/5
f 194/5/5 185/5/5 190/5/5
f 194/4/5 190/4/5 193/4/5
f 195/4/5 192/4/5 191/4/5
f 195/5/5 191/5/5 186/5/5
f 196/4/5 192/4/5 195/4/5
f 197/2/5 194/2/5 193/2/5
f 198/5/5 185/5/5 194/5/5
f 198/2/5 194/2/5 197/2/5
f 199/1/5 186/1/5 185/1/5
f 199/5/5 185/5/5 198/5/5
f 200/5/5 195/5/5 186/5/5
f 200/1/5 186/1/5 199/1/5
f 201/2/5 196/2/5 195/2/5
f 201/5/5 195/5/5 200/5/5
f 202/2/5 196/2/5 201/2/5
f 203/5/6 204/5/6 207/5/6
f 205/5/6 206/5/6 208/5/6
f 208/5/6 206/5/6 209/5/6
f 206/1/6 207/1/6 210/1/6
f 209/5/6 206/5/6 210/5/6
f 207/5/6 204/5/6 211/5/6
f 210/1/6 207/1/6 211/1/6
f 208/1/6 209/1/6 212/1/6
f 205/5/6 208/5/6 212/5/6
f 209/5/6 210/5/6 213/5/6
f 212/1/6 209/1/6 213/1/6
f 210/5/6 211/5/6 213/5/6
f 212/5/6 213/5/6 214/5/6
f 213/5/6 211/5/6 214/5/6
f 211/5/6 204/5/6 215/5/6
f 214/5/6 211/5/6 215/5/6
f 212/5/6 214/5/6 216/5/6
f 205/5/6 212/5/6 216/5/6
f 216/5/6 214/5/6 217/5/6
f 214/1/6 215/1/6 218/1/6
f 217/5/6 214/5/6 218/5/6
f 215/5/6 204/5/6 219/5/6
f 218/1/6 215/1/6 219/1/6
f 216/1/6 217/1/6 220/1/6
f 205/5/6 216/5/6 220/5/6
f 217/5/6 218/5/6 221/5/6
f 220/1/6 217/1/6 221/1/6
f 218/5/6 219/5/6 221/5/6
f 220/5/6 221/5/6 222/5/6
f 221/5/6 219/5/6 222/5/6
f 219/5/6 204/5/6 223/5/6
f 222/5/6 219/5/6 223/5/6
f 205/5/6 220/5/6 224/5/6
f 220/5/6 222/5/6 224/5/6
f 224/5/6 222/5/6 225/5/6
f 205/5/6 224/5/6 226/5/6
f 224/1/6 225/1/6 227/1/6
f 226/5/6 224/5/6 227/5/6
f 222/1/6 223/1/6 228/1/6
f 225/5/6 222/5/6 228/5/6
f 223/5/6 204/5/6 229/5/6
f 228/1/6 223/1/6 229/1/6
f 226/1/6 227/1/6 230/1/6
f 225/5/6 228/5/6 231/5/6
f 230/1/6 227/1/6 231/1/6
f 227/1/6 225/1/6 231/1/6
f 228/5/6 229/5/6 231/5/6
f 231/5/6 229/5/6 232/5/6
f 229/5/6 204/5/6 233/5/6
f 232/5/6 229/5/6 233/5/6
f 231/5/6 232/5/6 234/5/6
f 230/5/6 231/5/6 234/5/6
f 232/1/6 233/1/6 234/1/6
f 233/5/6 204/5/6 235/5/6
f 234/1/6 233/1/6 235/1/6
f 230/5/6 234/5/6 236/5/6
f 234/5/6 235/5/6 236/5/6
f 235/5/6 204/5/6 237/5/6
f 236/5/6 235/5/6 237/5/6
f 230/5/6 236/5/6 238/5/6
f 236/1/6 237/1/6 238/1/6
f 237/5/6 204/5/6 239/5/6
f 238/1/6 237/1/6 239/1/6
f 230/5/6 238/5/6 240/5/6
f 238/5/6 239/5/6 240/5/6
f 239/5/6 204/5/6 241/5/6
f 240/5/6 239/5/6 241/5/6
f 230/5/6 240/5/6 242/5/6
f 240/1/6 241/1/6 243/1/6
f 242/5/6 240/5/6 243/5/6
f 241/5/6 204/5/6 244/5/6
f 243/1/6 241/1/6 244/1/6
f 244/5/6 204/5/6 245/5/6
f 245/5/6 204/5/6 246/5/6
f 244/5/6 245/5/6 247/5/6
f 245/1/6 246/1/6 248/1/6
f 247/5/6 245/5/6 248/5/6
f 246/5/6 204/5/6 249/5/6
f 248/1/6 246/1/6 249/1/6
f 249/5/6 204/5/6 250/5/6
f 251/2/6 252/2/6 255/2/6
f 255/2/6 252/2/6 256/2/6
f 257/2/6 258/2/6 259/2/6
f 259/2/6 258/2/6 260/2/6
f 253/2/6 254/2/6 261/2/6
f 261/2/6 254/2/6 262/2/6
f 263/4/6 264/4/6 265/4/6
f 265/4/6 264/4/6 266/4/6
f 265/3/6 266/3/6 267/3/6
f 267/3/6 266/3/6 268/3/6
f 263/4/6 265/4/6 270/4/6
f 269/4/6 270/4/6 271/4/6
f 265/3/6 267/3/6 272/3/6
f 271/4/6 270/4/6 272/4/6
f 270/4/6 265/4/6 272/4/6
f 271/3/6 272/3/6 273/3/6
f 272/3/6 267/3/6 274/3/6
f 273/3/6 272/3/6 274/3/6
f 275/3/6 276/3/6 277/3/6
f 277/3/6 276/3/6 278/3/6
f 277/4/6 278/4/6 279/4/6
f 279/4/6 278/4/6 280/4/6
f 280/4/6 278/4/6 281/4/6
f 278/3/6 276/3/6 282/3/6
f 281/4/6 278/4/6 282/4/6
f 282/3/6 276/3/6 283/3/6
f 268/3/6 266/3/6 284/3/6
f 266/4/6 264/4/6 285/4/6
f 284/3/6 266/3/6 285/3/6
f 285/4/6 264/4/6 286/4/6
