# MagicaVoxel @ Ephtracy

# group
o 

# material
mtllib straightconnect.mtl
usemtl palette

# normals
vn -1 0 0
vn 1 0 0
vn 0 0 1
vn 0 0 -1
vn 0 -1 0
vn 0 1 0

# texcoords
vt 0.958984 0.5
vt 0.982422 0.5
vt 0.986328 0.5
vt 0.994141 0.5

# verts
v -3.2 0.2 2.6
v -3.2 0.2 2.4
v -3.2 0.2 2.2
v -3.2 0.2 0.2
v -3.2 0.2 -0.2
v -3.2 0.2 -2.2
v -3.2 0.2 -2.4
v -3.2 0.2 -2.6
v -3.2 0.3 2.6
v -3.2 0.3 2.4
v -3.2 0.3 2.2
v -3.2 0.3 0.2
v -3.2 0.3 -0.2
v -3.2 0.3 -2.2
v -3.2 0.3 -2.4
v -3.2 0.3 -2.6
v -3.2 0.4 2.4
v -3.2 0.4 2.2
v -3.2 0.4 -2.2
v -3.2 0.4 -2.4
v -2.6 0.2 -2.6
v -2.6 0.2 -3.2
v -2.6 0.3 -2.6
v -2.6 0.3 -3.2
v -2.4 0.3 -2.4
v -2.4 0.3 -3.2
v -2.4 0.4 -2.4
v -2.4 0.4 -3.2
v 2.2 0.3 -2.2
v 2.2 0.3 -2.4
v 2.2 0.3 -3.2
v 2.2 0.4 -2.2
v 2.2 0.4 -3.2
v 2.4 0.2 -2.6
v 2.4 0.2 -3.2
v 2.4 0.3 -2.6
v 2.4 0.3 -3.2
v -2.2 0.3 -2.2
v -2.2 0.3 -2.4
v -2.2 0.3 -3.2
v -2.2 0.4 -2.2
v -2.2 0.4 -3.2
v 2.3 0.2 -2.6
v 2.3 0.2 -3.2
v 2.3 0.3 -2.6
v 2.3 0.3 -3.2
v 2.4 0.3 -2.4
v 2.4 0.3 -3.2
v 2.4 0.4 -2.4
v 2.4 0.4 -3.2
v 2.6 0.2 -2.6
v 2.6 0.2 -3.2
v 2.6 0.3 -2.6
v 2.6 0.3 -3.2
v 3.2 0.2 2.6
v 3.2 0.2 2.4
v 3.2 0.2 2.2
v 3.2 0.2 0.2
v 3.2 0.2 -0.2
v 3.2 0.2 -2.2
v 3.2 0.2 -2.4
v 3.2 0.2 -2.6
v 3.2 0.3 2.6
v 3.2 0.3 2.4
v 3.2 0.3 2.2
v 3.2 0.3 0.2
v 3.2 0.3 -0.2
v 3.2 0.3 -2.2
v 3.2 0.3 -2.4
v 3.2 0.3 -2.6
v 3.2 0.4 2.4
v 3.2 0.4 2.2
v 3.2 0.4 -2.2
v 3.2 0.4 -2.4
v -3.2 0.2 2.6
v -3.2 0.3 2.6
v 3.2 0.2 2.6
v 3.2 0.3 2.6
v -3.2 0.3 2.4
v -3.2 0.4 2.4
v 3.2 0.3 2.4
v 3.2 0.4 2.4
v -3.2 0.3 -2.2
v -3.2 0.4 -2.2
v -2.2 0.3 -2.2
v -2.2 0.4 -2.2
v 2.2 0.3 -2.2
v 2.2 0.4 -2.2
v 3.2 0.3 -2.2
v 3.2 0.4 -2.2
v -3.2 0.3 2.2
v -3.2 0.4 2.2
v 3.2 0.3 2.2
v 3.2 0.4 2.2
v -3.2 0.3 -2.4
v -3.2 0.4 -2.4
v -2.4 0.3 -2.4
v -2.4 0.4 -2.4
v 2.4 0.3 -2.4
v 2.4 0.4 -2.4
v 3.2 0.3 -2.4
v 3.2 0.4 -2.4
v -3.2 0.2 -2.6
v -3.2 0.3 -2.6
v -2.6 0.2 -2.6
v -2.6 0.3 -2.6
v 2.3 0.2 -2.6
v 2.3 0.3 -2.6
v 2.4 0.2 -2.6
v 2.4 0.3 -2.6
v 2.6 0.2 -2.6
v 2.6 0.3 -2.6
v 3.2 0.2 -2.6
v 3.2 0.3 -2.6
v -2.6 0.2 -3.2
v -2.6 0.3 -3.2
v -2.4 0.3 -3.2
v -2.4 0.4 -3.2
v -2.2 0.2 -3.2
v -2.2 0.3 -3.2
v -2.2 0.4 -3.2
v -0.2 0.2 -3.2
v -0.2 0.3 -3.2
v 0.2 0.2 -3.2
v 0.2 0.3 -3.2
v 2.2 0.2 -3.2
v 2.2 0.3 -3.2
v 2.2 0.4 -3.2
v 2.3 0.2 -3.2
v 2.3 0.3 -3.2
v 2.4 0.2 -3.2
v 2.4 0.3 -3.2
v 2.4 0.4 -3.2
v 2.6 0.2 -3.2
v 2.6 0.3 -3.2
v -3.2 0.2 2.6
v 3.2 0.2 2.6
v -3.2 0.2 2.4
v 3.2 0.2 2.4
v -3.2 0.2 2.2
v 3.2 0.2 2.2
v -3.2 0.2 0.2
v -2.2 0.2 0.2
v 2.2 0.2 0.2
v 3.2 0.2 0.2
v -3.2 0.2 -0.2
v -2.2 0.2 -0.2
v 2.2 0.2 -0.2
v 3.2 0.2 -0.2
v -3.2 0.2 -2.2
v -2.2 0.2 -2.2
v -1.8 0.2 -2.2
v -1.4 0.2 -2.2
v -1 0.2 -2.2
v -0.6 0.2 -2.2
v -0.2 0.2 -2.2
v 0.2 0.2 -2.2
v 0.6 0.2 -2.2
v 1 0.2 -2.2
v 1.4 0.2 -2.2
v 1.8 0.2 -2.2
v 2.2 0.2 -2.2
v 3.2 0.2 -2.2
v -3.2 0.2 -2.4
v -2.2 0.2 -2.4
v -1.8 0.2 -2.4
v -1.4 0.2 -2.4
v -1 0.2 -2.4
v -0.6 0.2 -2.4
v -0.2 0.2 -2.4
v 0.2 0.2 -2.4
v 0.6 0.2 -2.4
v 1 0.2 -2.4
v 1.4 0.2 -2.4
v 1.8 0.2 -2.4
v 2.2 0.2 -2.4
v 2.3 0.2 -2.4
v 3.2 0.2 -2.4
v -3.2 0.2 -2.6
v -2.6 0.2 -2.6
v -0.2 0.2 -2.6
v 0.2 0.2 -2.6
v 2.3 0.2 -2.6
v 2.4 0.2 -2.6
v 2.6 0.2 -2.6
v 3.2 0.2 -2.6
v -2.6 0.2 -3.2
v -2.2 0.2 -3.2
v -0.2 0.2 -3.2
v 0.2 0.2 -3.2
v 2.2 0.2 -3.2
v 2.3 0.2 -3.2
v 2.4 0.2 -3.2
v 2.6 0.2 -3.2
v 2.3 0.3 -2.6
v 2.4 0.3 -2.6
v 2.3 0.3 -3.2
v 2.4 0.3 -3.2
v -3.2 0.3 2.6
v 3.2 0.3 2.6
v -3.2 0.3 2.4
v 3.2 0.3 2.4
v -3.2 0.3 2.2
v 3.2 0.3 2.2
v -3.2 0.3 0.2
v -2.2 0.3 0.2
v 2.2 0.3 0.2
v 3.2 0.3 0.2
v -3.2 0.3 -0.2
v -2.2 0.3 -0.2
v 2.2 0.3 -0.2
v 3.2 0.3 -0.2
v -3.2 0.3 -2.2
v -2.2 0.3 -2.2
v -1.8 0.3 -2.2
v -1.4 0.3 -2.2
v -1 0.3 -2.2
v -0.6 0.3 -2.2
v -0.2 0.3 -2.2
v 0.2 0.3 -2.2
v 0.6 0.3 -2.2
v 1 0.3 -2.2
v 1.4 0.3 -2.2
v 1.8 0.3 -2.2
v 2.2 0.3 -2.2
v 3.2 0.3 -2.2
v -3.2 0.3 -2.4
v -2.4 0.3 -2.4
v -2.2 0.3 -2.4
v -1.8 0.3 -2.4
v -1.4 0.3 -2.4
v -1 0.3 -2.4
v -0.6 0.3 -2.4
v -0.2 0.3 -2.4
v 0.2 0.3 -2.4
v 0.6 0.3 -2.4
v 1 0.3 -2.4
v 1.4 0.3 -2.4
v 1.8 0.3 -2.4
v 2.2 0.3 -2.4
v 2.4 0.3 -2.4
v 3.2 0.3 -2.4
v -3.2 0.3 -2.6
v -2.6 0.3 -2.6
v -0.2 0.3 -2.6
v 0.2 0.3 -2.6
v 2.6 0.3 -2.6
v 3.2 0.3 -2.6
v -2.6 0.3 -3.2
v -2.4 0.3 -3.2
v -2.2 0.3 -3.2
v -0.2 0.3 -3.2
v 0.2 0.3 -3.2
v 2.2 0.3 -3.2
v 2.4 0.3 -3.2
v 2.6 0.3 -3.2
v -3.2 0.4 2.4
v 3.2 0.4 2.4
v -3.2 0.4 2.2
v 3.2 0.4 2.2
v -3.2 0.4 -2.2
v -2.2 0.4 -2.2
v 2.2 0.4 -2.2
v 3.2 0.4 -2.2
v -3.2 0.4 -2.4
v -2.4 0.4 -2.4
v 2.4 0.4 -2.4
v 3.2 0.4 -2.4
v -2.4 0.4 -3.2
v -2.2 0.4 -3.2
v 2.2 0.4 -3.2
v 2.4 0.4 -3.2

# faces
f 9/3/1 2/3/1 1/3/1
f 10/2/1 3/2/1 2/2/1
f 10/3/1 2/3/1 9/3/1
f 11/4/1 4/4/1 3/4/1
f 11/2/1 3/2/1 10/2/1
f 12/1/1 5/1/1 4/1/1
f 12/4/1 4/4/1 11/4/1
f 13/4/1 6/4/1 5/4/1
f 13/1/1 5/1/1 12/1/1
f 14/2/1 7/2/1 6/2/1
f 14/4/1 6/4/1 13/4/1
f 15/3/1 8/3/1 7/3/1
f 15/2/1 7/2/1 14/2/1
f 16/3/1 8/3/1 15/3/1
f 17/2/1 11/2/1 10/2/1
f 18/2/1 11/2/1 17/2/1
f 19/2/1 15/2/1 14/2/1
f 20/2/1 15/2/1 19/2/1
f 23/3/1 22/3/1 21/3/1
f 24/3/1 22/3/1 23/3/1
f 27/2/1 26/2/1 25/2/1
f 28/2/1 26/2/1 27/2/1
f 32/2/1 30/2/1 29/2/1
f 32/2/1 31/2/1 30/2/1
f 33/2/1 31/2/1 32/2/1
f 36/3/1 35/3/1 34/3/1
f 37/3/1 35/3/1 36/3/1
f 38/2/2 39/2/2 41/2/2
f 39/2/2 40/2/2 41/2/2
f 41/2/2 40/2/2 42/2/2
f 43/2/2 44/2/2 45/2/2
f 45/2/2 44/2/2 46/2/2
f 47/2/2 48/2/2 49/2/2
f 49/2/2 48/2/2 50/2/2
f 51/3/2 52/3/2 53/3/2
f 53/3/2 52/3/2 54/3/2
f 55/3/2 56/3/2 63/3/2
f 56/2/2 57/2/2 64/2/2
f 63/3/2 56/3/2 64/3/2
f 57/4/2 58/4/2 65/4/2
f 64/2/2 57/2/2 65/2/2
f 58/1/2 59/1/2 66/1/2
f 65/4/2 58/4/2 66/4/2
f 59/4/2 60/4/2 67/4/2
f 66/1/2 59/1/2 67/1/2
f 60/2/2 61/2/2 68/2/2
f 67/4/2 60/4/2 68/4/2
f 61/3/2 62/3/2 69/3/2
f 68/2/2 61/2/2 69/2/2
f 69/3/2 62/3/2 70/3/2
f 64/2/2 65/2/2 71/2/2
f 71/2/2 65/2/2 72/2/2
f 68/2/2 69/2/2 73/2/2
f 73/2/2 69/2/2 74/2/2
f 77/3/3 76/3/3 75/3/3
f 78/3/3 76/3/3 77/3/3
f 81/2/3 80/2/3 79/2/3
f 82/2/3 80/2/3 81/2/3
f 85/2/3 84/2/3 83/2/3
f 86/2/3 84/2/3 85/2/3
f 89/2/3 88/2/3 87/2/3
f 90/2/3 88/2/3 89/2/3
f 91/2/4 92/2/4 93/2/4
f 93/2/4 92/2/4 94/2/4
f 95/2/4 96/2/4 97/2/4
f 97/2/4 96/2/4 98/2/4
f 99/2/4 100/2/4 101/2/4
f 101/2/4 100/2/4 102/2/4
f 103/3/4 104/3/4 105/3/4
f 105/3/4 104/3/4 106/3/4
f 107/3/4 108/3/4 109/3/4
f 109/3/4 108/3/4 110/3/4
f 111/3/4 112/3/4 113/3/4
f 113/3/4 112/3/4 114/3/4
f 115/3/4 116/3/4 117/3/4
f 115/3/4 117/3/4 119/3/4
f 117/2/4 118/2/4 120/2/4
f 119/3/4 117/3/4 120/3/4
f 120/2/4 118/2/4 121/2/4
f 119/4/4 120/4/4 122/4/4
f 122/4/4 120/4/4 123/4/4
f 122/1/4 123/1/4 124/1/4
f 124/1/4 123/1/4 125/1/4
f 124/4/4 125/4/4 126/4/4
f 126/4/4 125/4/4 127/4/4
f 126/2/4 127/2/4 129/2/4
f 127/2/4 128/2/4 129/2/4
f 129/2/4 128/2/4 130/2/4
f 130/2/4 128/2/4 132/2/4
f 132/2/4 128/2/4 133/2/4
f 131/3/4 132/3/4 134/3/4
f 134/3/4 132/3/4 135/3/4
f 138/3/5 137/3/5 136/3/5
f 139/3/5 137/3/5 138/3/5
f 140/2/5 139/2/5 138/2/5
f 141/2/5 139/2/5 140/2/5
f 142/4/5 141/4/5 140/4/5
f 143/4/5 141/4/5 142/4/5
f 144/4/5 141/4/5 143/4/5
f 145/4/5 141/4/5 144/4/5
f 146/1/5 143/1/5 142/1/5
f 147/4/5 144/4/5 143/4/5
f 147/1/5 143/1/5 146/1/5
f 148/1/5 145/1/5 144/1/5
f 148/4/5 144/4/5 147/4/5
f 149/1/5 145/1/5 148/1/5
f 150/4/5 147/4/5 146/4/5
f 150/4/5 148/4/5 147/4/5
f 150/4/5 149/4/5 148/4/5
f 151/4/5 149/4/5 150/4/5
f 152/4/5 149/4/5 151/4/5
f 153/4/5 149/4/5 152/4/5
f 154/4/5 149/4/5 153/4/5
f 155/4/5 149/4/5 154/4/5
f 156/4/5 149/4/5 155/4/5
f 157/4/5 149/4/5 156/4/5
f 158/4/5 149/4/5 157/4/5
f 159/4/5 149/4/5 158/4/5
f 160/4/5 149/4/5 159/4/5
f 161/4/5 149/4/5 160/4/5
f 162/4/5 149/4/5 161/4/5
f 163/4/5 149/4/5 162/4/5
f 164/2/5 151/2/5 150/2/5
f 165/1/5 152/1/5 151/1/5
f 165/2/5 151/2/5 164/2/5
f 166/4/5 153/4/5 152/4/5
f 166/1/5 152/1/5 165/1/5
f 167/1/5 154/1/5 153/1/5
f 167/4/5 153/4/5 166/4/5
f 168/4/5 155/4/5 154/4/5
f 168/1/5 154/1/5 167/1/5
f 169/1/5 156/1/5 155/1/5
f 169/4/5 155/4/5 168/4/5
f 170/4/5 157/4/5 156/4/5
f 170/1/5 156/1/5 169/1/5
f 171/1/5 158/1/5 157/1/5
f 171/4/5 157/4/5 170/4/5
f 172/4/5 159/4/5 158/4/5
f 172/1/5 158/1/5 171/1/5
f 173/1/5 160/1/5 159/1/5
f 173/4/5 159/4/5 172/4/5
f 174/4/5 161/4/5 160/4/5
f 174/1/5 160/1/5 173/1/5
f 175/1/5 162/1/5 161/1/5
f 175/4/5 161/4/5 174/4/5
f 176/2/5 163/2/5 162/2/5
f 176/1/5 162/1/5 175/1/5
f 177/2/5 163/2/5 176/2/5
f 178/2/5 163/2/5 177/2/5
f 179/3/5 165/3/5 164/3/5
f 180/3/5 165/3/5 179/3/5
f 181/4/5 166/4/5 165/4/5
f 181/4/5 167/4/5 166/4/5
f 181/4/5 168/4/5 167/4/5
f 181/4/5 169/4/5 168/4/5
f 181/4/5 170/4/5 169/4/5
f 181/4/5 171/4/5 170/4/5
f 181/4/5 176/4/5 175/4/5
f 181/4/5 175/4/5 174/4/5
f 181/4/5 174/4/5 173/4/5
f 181/4/5 173/4/5 172/4/5
f 181/4/5 172/4/5 171/4/5
f 182/4/5 176/4/5 181/4/5
f 183/3/5 178/3/5 177/3/5
f 183/2/5 177/2/5 176/2/5
f 184/3/5 178/3/5 183/3/5
f 185/3/5 178/3/5 184/3/5
f 186/3/5 178/3/5 185/3/5
f 187/3/5 165/3/5 180/3/5
f 188/4/5 181/4/5 165/4/5
f 188/3/5 165/3/5 187/3/5
f 189/1/5 182/1/5 181/1/5
f 189/4/5 181/4/5 188/4/5
f 190/4/5 176/4/5 182/4/5
f 190/1/5 182/1/5 189/1/5
f 191/2/5 183/2/5 176/2/5
f 191/4/5 176/4/5 190/4/5
f 192/2/5 183/2/5 191/2/5
f 193/3/5 185/3/5 184/3/5
f 194/3/5 185/3/5 193/3/5
f 197/2/5 196/2/5 195/2/5
f 198/2/5 196/2/5 197/2/5
f 199/3/6 200/3/6 201/3/6
f 201/3/6 200/3/6 202/3/6
f 203/4/6 204/4/6 205/4/6
f 205/4/6 204/4/6 206/4/6
f 206/4/6 204/4/6 207/4/6
f 207/4/6 204/4/6 208/4/6
f 205/1/6 206/1/6 209/1/6
f 206/4/6 207/4/6 210/4/6
f 209/1/6 206/1/6 210/1/6
f 207/1/6 208/1/6 211/1/6
f 210/4/6 207/4/6 211/4/6
f 211/1/6 208/1/6 212/1/6
f 209/4/6 210/4/6 213/4/6
f 210/4/6 211/4/6 213/4/6
f 211/4/6 212/4/6 213/4/6
f 213/4/6 212/4/6 214/4/6
f 214/4/6 212/4/6 215/4/6
f 215/4/6 212/4/6 216/4/6
f 216/4/6 212/4/6 217/4/6
f 217/4/6 212/4/6 218/4/6
f 218/4/6 212/4/6 219/4/6
f 219/4/6 212/4/6 220/4/6
f 220/4/6 212/4/6 221/4/6
f 221/4/6 212/4/6 222/4/6
f 222/4/6 212/4/6 223/4/6
f 223/4/6 212/4/6 224/4/6
f 224/4/6 212/4/6 225/4/6
f 225/4/6 212/4/6 226/4/6
f 214/1/6 215/1/6 229/1/6
f 215/4/6 216/4/6 230/4/6
f 229/1/6 215/1/6 230/1/6
f 216/1/6 217/1/6 231/1/6
f 230/4/6 216/4/6 231/4/6
f 217/4/6 218/4/6 232/4/6
f 231/1/6 217/1/6 232/1/6
f 218/1/6 219/1/6 233/1/6
f 232/4/6 218/4/6 233/4/6
f 219/4/6 220/4/6 234/4/6
f 233/1/6 219/1/6 234/1/6
f 220/1/6 221/1/6 235/1/6
f 234/4/6 220/4/6 235/4/6
f 221/4/6 222/4/6 236/4/6
f 235/1/6 221/1/6 236/1/6
f 222/1/6 223/1/6 237/1/6
f 236/4/6 222/4/6 237/4/6
f 223/4/6 224/4/6 238/4/6
f 237/1/6 223/1/6 238/1/6
f 224/1/6 225/1/6 239/1/6
f 238/4/6 224/4/6 239/4/6
f 239/1/6 225/1/6 240/1/6
f 227/3/6 228/3/6 243/3/6
f 243/3/6 228/3/6 244/3/6
f 229/4/6 230/4/6 245/4/6
f 230/4/6 231/4/6 245/4/6
f 231/4/6 232/4/6 245/4/6
f 232/4/6 233/4/6 245/4/6
f 239/4/6 240/4/6 245/4/6
f 238/4/6 239/4/6 245/4/6
f 237/4/6 238/4/6 245/4/6
f 236/4/6 237/4/6 245/4/6
f 235/4/6 236/4/6 245/4/6
f 234/4/6 235/4/6 245/4/6
f 233/4/6 234/4/6 245/4/6
f 245/4/6 240/4/6 246/4/6
f 241/3/6 242/3/6 247/3/6
f 247/3/6 242/3/6 248/3/6
f 244/3/6 228/3/6 249/3/6
f 249/3/6 228/3/6 250/3/6
f 229/4/6 245/4/6 251/4/6
f 245/1/6 246/1/6 252/1/6
f 251/4/6 245/4/6 252/4/6
f 246/4/6 240/4/6 253/4/6
f 252/1/6 246/1/6 253/1/6
f 253/4/6 240/4/6 254/4/6
f 241/3/6 247/3/6 255/3/6
f 255/3/6 247/3/6 256/3/6
f 257/2/6 258/2/6 259/2/6
f 259/2/6 258/2/6 260/2/6
f 261/2/6 262/2/6 265/2/6
f 265/2/6 262/2/6 266/2/6
f 263/2/6 264/2/6 267/2/6
f 267/2/6 264/2/6 268/2/6
f 266/2/6 262/2/6 269/2/6
f 269/2/6 262/2/6 270/2/6
f 263/2/6 267/2/6 271/2/6
f 271/2/6 267/2/6 272/2/6
