# MagicaVoxel @ Ephtracy

# group
o 

# material
mtllib extraedge.mtl
usemtl palette

# normals
vn -1 0 0
vn 1 0 0
vn 0 0 1
vn 0 0 -1
vn 0 -1 0
vn 0 1 0

# texcoords
vt 0.974609 0.5
vt 0.978516 0.5
vt 0.982422 0.5
vt 0.986328 0.5
vt 0.994141 0.5

# verts
v -3.2 0 3.2
v -3.2 0 0.2
v -3.2 0 0
v -3.2 0 -0.6
v -3.2 0 -3.2
v -3.2 0.1 3.2
v -3.2 0.1 0.2
v -3.2 0.1 0
v -3.2 0.1 -0.3
v -3.2 0.1 -0.6
v -3.2 0.1 -3.2
v -3.2 0.2 3.2
v -3.2 0.2 0.2
v -3.2 0.2 -0.2
v -3.2 0.2 -0.3
v -3.2 0.3 0.2
v -3.2 0.3 -0.2
v -3.2 0.3 -0.6
v -3 0.1 -0.6
v -3 0.1 -0.8
v -3 0.3 -0.6
v -3 0.3 -0.8
v -2.8 0.1 -0.8
v -2.8 0.1 -1
v -2.8 0.3 -0.8
v -2.8 0.3 -1
v -2.6 0.1 -1
v -2.6 0.1 -1.2
v -2.6 0.3 -1
v -2.6 0.3 -1.2
v -2.4 0.1 -1.2
v -2.4 0.1 -1.4
v -2.4 0.3 -1.2
v -2.4 0.3 -1.4
v -2.2 0.1 -1.4
v -2.2 0.1 -1.6
v -2.2 0.3 -1.4
v -2.2 0.3 -1.6
v -2 0.1 -1.6
v -2 0.1 -1.8
v -2 0.3 -1.6
v -2 0.3 -1.8
v -1.8 0.1 -1.8
v -1.8 0.1 -2
v -1.8 0.3 -1.8
v -1.8 0.3 -2
v -1.6 0.1 -2
v -1.6 0.1 -2.2
v -1.6 0.3 -2
v -1.6 0.3 -2.2
v -1.4 0.1 -2.2
v -1.4 0.1 -2.4
v -1.4 0.3 -2.2
v -1.4 0.3 -2.4
v -1.2 0.1 -2.4
v -1.2 0.1 -2.6
v -1.2 0.3 -2.4
v -1.2 0.3 -2.6
v -1 0.1 -2.6
v -1 0.1 -2.8
v -1 0.3 -2.6
v -1 0.3 -2.8
v -0.8 0.1 -2.8
v -0.8 0.1 -3
v -0.8 0.3 -2.8
v -0.8 0.3 -3
v -0.6 0.1 -3
v -0.6 0.1 -3.2
v -0.6 0.3 -3
v -0.6 0.3 -3.2
v -3 0.2 0.2
v -3 0.2 -0.2
v -3 0.3 0.2
v -3 0.3 -0.2
v -2.8 0.2 -0.2
v -2.8 0.2 -0.4
v -2.8 0.3 -0.2
v -2.8 0.3 -0.4
v -2.6 0.2 -0.4
v -2.6 0.2 -0.6
v -2.6 0.3 -0.4
v -2.6 0.3 -0.6
v -2.4 0.2 -0.6
v -2.4 0.2 -0.8
v -2.4 0.3 -0.6
v -2.4 0.3 -0.8
v -2.2 0.2 -0.8
v -2.2 0.2 -1
v -2.2 0.3 -0.8
v -2.2 0.3 -1
v -2 0.2 -1
v -2 0.2 -1.2
v -2 0.3 -1
v -2 0.3 -1.2
v -1.8 0.2 -1.2
v -1.8 0.2 -1.4
v -1.8 0.3 -1.2
v -1.8 0.3 -1.4
v -1.6 0.2 -1.4
v -1.6 0.2 -1.6
v -1.6 0.3 -1.4
v -1.6 0.3 -1.6
v -1.4 0.2 -1.6
v -1.4 0.2 -1.8
v -1.4 0.3 -1.6
v -1.4 0.3 -1.8
v -1.2 0.2 -1.8
v -1.2 0.2 -2
v -1.2 0.3 -1.8
v -1.2 0.3 -2
v -1 0.2 -2
v -1 0.2 -2.2
v -1 0.3 -2
v -1 0.3 -2.2
v -0.8 0.2 -2.2
v -0.8 0.2 -2.4
v -0.8 0.3 -2.2
v -0.8 0.3 -2.4
v -0.6 0.2 -2.4
v -0.6 0.2 -2.6
v -0.6 0.3 -2.4
v -0.6 0.3 -2.6
v -0.4 0.2 -2.6
v -0.4 0.2 -2.8
v -0.4 0.3 -2.6
v -0.4 0.3 -2.8
v -0.2 0.2 -2.8
v -0.2 0.2 -3
v -0.2 0.3 -2.8
v -0.2 0.3 -3
v 0 0.2 -3
v 0 0.2 -3.2
v 0 0.3 -3
v 0 0.3 -3.2
v 3.2 0 3.2
v 3.2 0 -3.2
v 3.2 0.1 3.2
v 3.2 0.1 -3.2
v 3.2 0.2 3.2
v 3.2 0.2 -3.2
v -3.2 0 3.2
v -3.2 0.1 3.2
v -3.2 0.2 3.2
v 3.2 0 3.2
v 3.2 0.1 3.2
v 3.2 0.2 3.2
v -3.2 0.2 0.2
v -3.2 0.3 0.2
v -3 0.2 0.2
v -3 0.3 0.2
v -3 0.2 -0.2
v -3 0.3 -0.2
v -2.8 0.2 -0.2
v -2.8 0.3 -0.2
v -2.8 0.2 -0.4
v -2.8 0.3 -0.4
v -2.6 0.2 -0.4
v -2.6 0.3 -0.4
v -2.6 0.2 -0.6
v -2.6 0.3 -0.6
v -2.4 0.2 -0.6
v -2.4 0.3 -0.6
v -2.4 0.2 -0.8
v -2.4 0.3 -0.8
v -2.2 0.2 -0.8
v -2.2 0.3 -0.8
v -2.2 0.2 -1
v -2.2 0.3 -1
v -2 0.2 -1
v -2 0.3 -1
v -2 0.2 -1.2
v -2 0.3 -1.2
v -1.8 0.2 -1.2
v -1.8 0.3 -1.2
v -1.8 0.2 -1.4
v -1.8 0.3 -1.4
v -1.6 0.2 -1.4
v -1.6 0.3 -1.4
v -1.6 0.2 -1.6
v -1.6 0.3 -1.6
v -1.4 0.2 -1.6
v -1.4 0.3 -1.6
v -1.4 0.2 -1.8
v -1.4 0.3 -1.8
v -1.2 0.2 -1.8
v -1.2 0.3 -1.8
v -1.2 0.2 -2
v -1.2 0.3 -2
v -1 0.2 -2
v -1 0.3 -2
v -1 0.2 -2.2
v -1 0.3 -2.2
v -0.8 0.2 -2.2
v -0.8 0.3 -2.2
v -0.8 0.2 -2.4
v -0.8 0.3 -2.4
v -0.6 0.2 -2.4
v -0.6 0.3 -2.4
v -0.6 0.2 -2.6
v -0.6 0.3 -2.6
v -0.4 0.2 -2.6
v -0.4 0.3 -2.6
v -0.4 0.2 -2.8
v -0.4 0.3 -2.8
v -0.2 0.2 -2.8
v -0.2 0.3 -2.8
v -0.2 0.2 -3
v -0.2 0.3 -3
v 0 0.2 -3
v 0 0.3 -3
v -3.2 0.1 -0.6
v -3.2 0.3 -0.6
v -3 0.1 -0.6
v -3 0.3 -0.6
v -3 0.1 -0.8
v -3 0.3 -0.8
v -2.8 0.1 -0.8
v -2.8 0.3 -0.8
v -2.8 0.1 -1
v -2.8 0.3 -1
v -2.6 0.1 -1
v -2.6 0.3 -1
v -2.6 0.1 -1.2
v -2.6 0.3 -1.2
v -2.4 0.1 -1.2
v -2.4 0.3 -1.2
v -2.4 0.1 -1.4
v -2.4 0.3 -1.4
v -2.2 0.1 -1.4
v -2.2 0.3 -1.4
v -2.2 0.1 -1.6
v -2.2 0.3 -1.6
v -2 0.1 -1.6
v -2 0.3 -1.6
v -2 0.1 -1.8
v -2 0.3 -1.8
v -1.8 0.1 -1.8
v -1.8 0.3 -1.8
v -1.8 0.1 -2
v -1.8 0.3 -2
v -1.6 0.1 -2
v -1.6 0.3 -2
v -1.6 0.1 -2.2
v -1.6 0.3 -2.2
v -1.4 0.1 -2.2
v -1.4 0.3 -2.2
v -1.4 0.1 -2.4
v -1.4 0.3 -2.4
v -1.2 0.1 -2.4
v -1.2 0.3 -2.4
v -1.2 0.1 -2.6
v -1.2 0.3 -2.6
v -1 0.1 -2.6
v -1 0.3 -2.6
v -1 0.1 -2.8
v -1 0.3 -2.8
v -0.8 0.1 -2.8
v -0.8 0.3 -2.8
v -0.8 0.1 -3
v -0.8 0.3 -3
v -0.6 0.1 -3
v -0.6 0.3 -3
v -3.2 0 -3.2
v -3.2 0.1 -3.2
v -0.6 0.1 -3.2
v -0.6 0.3 -3.2
v -0.3 0.1 -3.2
v -0.3 0.2 -3.2
v -0.2 0.2 -3.2
v -0.2 0.3 -3.2
v 0 0.2 -3.2
v 0 0.3 -3.2
v 0.2 0 -3.2
v 0.2 0.1 -3.2
v 3.2 0 -3.2
v 3.2 0.1 -3.2
v 3.2 0.2 -3.2
v -3.2 0 3.2
v 3.2 0 3.2
v -3.2 0 0.2
v -3 0 0.2
v -3.2 0 0
v -3 0 0
v -2.8 0 0
v -3 0 -0.2
v -2.8 0 -0.2
v -2.6 0 -0.2
v -3.1 0 -0.4
v -3 0 -0.4
v -2.8 0 -0.4
v -2.6 0 -0.4
v -3.2 0 -0.6
v -3.1 0 -0.6
v -2.9 0 -0.6
v -2.8 0 -0.6
v -2.6 0 -0.7
v -2.4 0 -0.7
v -3 0 -0.8
v -2.9 0 -0.8
v -2.7 0 -0.8
v -2.6 0 -0.8
v -2.4 0 -0.8
v -2.2 0 -0.8
v -2.8 0 -1
v -2.7 0 -1
v -2.5 0 -1
v -2.4 0 -1
v -2.2 0 -1
v -2 0 -1
v -2.5 0 -1.1
v -2.4 0 -1.1
v -2.6 0 -1.2
v -2.4 0 -1.2
v -2.3 0 -1.2
v -2.2 0 -1.2
v -2 0 -1.2
v -1.8 0 -1.2
v -2.4 0 -1.4
v -2.3 0 -1.4
v -2.1 0 -1.4
v -2 0 -1.4
v -1.8 0 -1.4
v -1.6 0 -1.4
v -2.2 0 -1.6
v -2.1 0 -1.6
v -1.9 0 -1.6
v -1.8 0 -1.6
v -1.6 0 -1.6
v -1.4 0 -1.6
v -1.2 0 -1.6
v -1.9 0 -1.7
v -1.8 0 -1.7
v -2 0 -1.8
v -1.8 0 -1.8
v -1.7 0 -1.8
v -1.6 0 -1.8
v -1.4 0 -1.8
v -1.2 0 -1.8
v -1 0 -1.8
v -1.7 0 -1.9
v -1.6 0 -1.9
v -1.8 0 -2
v -1.6 0 -2
v -1.5 0 -2
v -1.4 0 -2
v -1.2 0 -2
v -1 0 -2
v -0.8 0 -2
v -1.5 0 -2.1
v -1.4 0 -2.1
v -1.6 0 -2.2
v -1.2 0 -2.2
v -1 0 -2.2
v -0.8 0 -2.2
v -0.6 0 -2.2
v -1.3 0 -2.3
v -1.2 0 -2.3
v -1.3 0 -2.4
v -1 0 -2.4
v -0.8 0 -2.4
v -0.6 0 -2.4
v -0.4 0 -2.4
v -1 0 -2.6
v -0.8 0 -2.6
v -0.6 0 -2.6
v -0.4 0 -2.6
v -0.2 0 -2.6
v -0.8 0 -2.8
v -0.6 0 -2.8
v -0.4 0 -2.8
v -0.2 0 -2.8
v 0 0 -2.8
v -0.6 0 -3
v -0.4 0 -3
v -0.2 0 -3
v 0 0 -3
v 0.2 0 -3
v -0.4 0 -3.1
v 0 0 -3.1
v 0.2 0 -3.1
v -3.2 0 -3.2
v 0.2 0 -3.2
v 3.2 0 -3.2
v -3.2 0.1 -0.6
v -3 0.1 -0.6
v -3 0.1 -0.8
v -2.8 0.1 -0.8
v -2.8 0.1 -1
v -2.6 0.1 -1
v -2.6 0.1 -1.2
v -2.4 0.1 -1.2
v -2.4 0.1 -1.4
v -2.2 0.1 -1.4
v -2.2 0.1 -1.6
v -2 0.1 -1.6
v -2 0.1 -1.8
v -1.8 0.1 -1.8
v -1.8 0.1 -2
v -1.6 0.1 -2
v -1.6 0.1 -2.2
v -1.4 0.1 -2.2
v -1.4 0.1 -2.4
v -1.2 0.1 -2.4
v -1.2 0.1 -2.6
v -1 0.1 -2.6
v -1 0.1 -2.8
v -0.8 0.1 -2.8
v -0.8 0.1 -3
v -0.6 0.1 -3
v -3.2 0.1 -3.2
v -0.6 0.1 -3.2
v -3.2 0.2 3.2
v 3.2 0.2 3.2
v -3.2 0.2 0.2
v -3 0.2 0.2
v -3 0.2 -0.2
v -2.8 0.2 -0.2
v -2.8 0.2 -0.4
v -2.6 0.2 -0.4
v -2.6 0.2 -0.6
v -2.4 0.2 -0.6
v -2.4 0.2 -0.8
v -2.2 0.2 -0.8
v -2.2 0.2 -1
v -2 0.2 -1
v -2 0.2 -1.2
v -1.8 0.2 -1.2
v -1.8 0.2 -1.4
v -1.6 0.2 -1.4
v -1.6 0.2 -1.6
v -1.4 0.2 -1.6
v -1.4 0.2 -1.8
v -1.2 0.2 -1.8
v -1.2 0.2 -2
v -1 0.2 -2
v -1 0.2 -2.2
v -0.8 0.2 -2.2
v -0.8 0.2 -2.4
v -0.6 0.2 -2.4
v -0.6 0.2 -2.6
v -0.4 0.2 -2.6
v -0.4 0.2 -2.8
v -0.2 0.2 -2.8
v -0.2 0.2 -3
v 0 0.2 -3
v 0 0.2 -3.2
v 3.2 0.2 -3.2
v -3.2 0.3 0.2
v -3 0.3 0.2
v -3.2 0.3 -0.2
v -3 0.3 -0.2
v -2.8 0.3 -0.2
v -3 0.3 -0.4
v -2.8 0.3 -0.4
v -2.6 0.3 -0.4
v -3.2 0.3 -0.6
v -3 0.3 -0.6
v -2.8 0.3 -0.6
v -2.6 0.3 -0.6
v -2.4 0.3 -0.6
v -3 0.3 -0.8
v -2.8 0.3 -0.8
v -2.6 0.3 -0.8
v -2.4 0.3 -0.8
v -2.2 0.3 -0.8
v -2.8 0.3 -1
v -2.6 0.3 -1
v -2.4 0.3 -1
v -2.2 0.3 -1
v -2 0.3 -1
v -2.6 0.3 -1.2
v -2.4 0.3 -1.2
v -2.2 0.3 -1.2
v -2 0.3 -1.2
v -1.8 0.3 -1.2
v -2.4 0.3 -1.4
v -2.2 0.3 -1.4
v -2 0.3 -1.4
v -1.8 0.3 -1.4
v -1.6 0.3 -1.4
v -2.2 0.3 -1.6
v -2 0.3 -1.6
v -1.8 0.3 -1.6
v -1.6 0.3 -1.6
v -1.4 0.3 -1.6
v -2 0.3 -1.8
v -1.8 0.3 -1.8
v -1.6 0.3 -1.8
v -1.4 0.3 -1.8
v -1.2 0.3 -1.8
v -1.8 0.3 -2
v -1.6 0.3 -2
v -1.4 0.3 -2
v -1.2 0.3 -2
v -1 0.3 -2
v -1.6 0.3 -2.2
v -1.4 0.3 -2.2
v -1.2 0.3 -2.2
v -1 0.3 -2.2
v -0.8 0.3 -2.2
v -1.4 0.3 -2.4
v -1.2 0.3 -2.4
v -1 0.3 -2.4
v -0.8 0.3 -2.4
v -0.6 0.3 -2.4
v -1.2 0.3 -2.6
v -1 0.3 -2.6
v -0.8 0.3 -2.6
v -0.6 0.3 -2.6
v -0.4 0.3 -2.6
v -1 0.3 -2.8
v -0.8 0.3 -2.8
v -0.6 0.3 -2.8
v -0.4 0.3 -2.8
v -0.2 0.3 -2.8
v -0.8 0.3 -3
v -0.6 0.3 -3
v -0.4 0.3 -3
v -0.2 0.3 -3
v 0 0.3 -3
v -0.6 0.3 -3.2
v -0.2 0.3 -3.2
v 0 0.3 -3.2

# faces
f 6/2/1 2/2/1 1/2/1
f 7/4/1 3/4/1 2/4/1
f 7/2/1 2/2/1 6/2/1
f 8/3/1 4/3/1 3/3/1
f 8/4/1 3/4/1 7/4/1
f 9/3/1 4/3/1 8/3/1
f 10/5/1 5/5/1 4/5/1
f 10/3/1 4/3/1 9/3/1
f 11/5/1 5/5/1 10/5/1
f 12/1/1 9/1/1 8/1/1
f 12/1/1 7/1/1 6/1/1
f 12/1/1 8/1/1 7/1/1
f 13/1/1 9/1/1 12/1/1
f 14/1/1 9/1/1 13/1/1
f 15/3/1 10/3/1 9/3/1
f 15/1/1 9/1/1 14/1/1
f 16/4/1 14/4/1 13/4/1
f 17/3/1 15/3/1 14/3/1
f 17/4/1 14/4/1 16/4/1
f 18/3/1 10/3/1 15/3/1
f 18/3/1 15/3/1 17/3/1
f 21/3/1 20/3/1 19/3/1
f 22/3/1 20/3/1 21/3/1
f 25/3/1 24/3/1 23/3/1
f 26/3/1 24/3/1 25/3/1
f 29/3/1 28/3/1 27/3/1
f 30/3/1 28/3/1 29/3/1
f 33/3/1 32/3/1 31/3/1
f 34/3/1 32/3/1 33/3/1
f 37/3/1 36/3/1 35/3/1
f 38/3/1 36/3/1 37/3/1
f 41/3/1 40/3/1 39/3/1
f 42/3/1 40/3/1 41/3/1
f 45/3/1 44/3/1 43/3/1
f 46/3/1 44/3/1 45/3/1
f 49/3/1 48/3/1 47/3/1
f 50/3/1 48/3/1 49/3/1
f 53/3/1 52/3/1 51/3/1
f 54/3/1 52/3/1 53/3/1
f 57/3/1 56/3/1 55/3/1
f 58/3/1 56/3/1 57/3/1
f 61/3/1 60/3/1 59/3/1
f 62/3/1 60/3/1 61/3/1
f 65/3/1 64/3/1 63/3/1
f 66/3/1 64/3/1 65/3/1
f 69/3/1 68/3/1 67/3/1
f 70/3/1 68/3/1 69/3/1
f 71/4/2 72/4/2 73/4/2
f 73/4/2 72/4/2 74/4/2
f 75/4/2 76/4/2 77/4/2
f 77/4/2 76/4/2 78/4/2
f 79/4/2 80/4/2 81/4/2
f 81/4/2 80/4/2 82/4/2
f 83/4/2 84/4/2 85/4/2
f 85/4/2 84/4/2 86/4/2
f 87/4/2 88/4/2 89/4/2
f 89/4/2 88/4/2 90/4/2
f 91/4/2 92/4/2 93/4/2
f 93/4/2 92/4/2 94/4/2
f 95/4/2 96/4/2 97/4/2
f 97/4/2 96/4/2 98/4/2
f 99/4/2 100/4/2 101/4/2
f 101/4/2 100/4/2 102/4/2
f 103/4/2 104/4/2 105/4/2
f 105/4/2 104/4/2 106/4/2
f 107/4/2 108/4/2 109/4/2
f 109/4/2 108/4/2 110/4/2
f 111/4/2 112/4/2 113/4/2
f 113/4/2 112/4/2 114/4/2
f 115/4/2 116/4/2 117/4/2
f 117/4/2 116/4/2 118/4/2
f 119/4/2 120/4/2 121/4/2
f 121/4/2 120/4/2 122/4/2
f 123/4/2 124/4/2 125/4/2
f 125/4/2 124/4/2 126/4/2
f 127/4/2 128/4/2 129/4/2
f 129/4/2 128/4/2 130/4/2
f 131/4/2 132/4/2 133/4/2
f 133/4/2 132/4/2 134/4/2
f 135/2/2 136/2/2 137/2/2
f 137/2/2 136/2/2 138/2/2
f 137/1/2 138/1/2 139/1/2
f 139/1/2 138/1/2 140/1/2
f 144/2/3 142/2/3 141/2/3
f 145/1/3 143/1/3 142/1/3
f 145/2/3 142/2/3 144/2/3
f 146/1/3 143/1/3 145/1/3
f 149/4/3 148/4/3 147/4/3
f 150/4/3 148/4/3 149/4/3
f 153/4/3 152/4/3 151/4/3
f 154/4/3 152/4/3 153/4/3
f 157/4/3 156/4/3 155/4/3
f 158/4/3 156/4/3 157/4/3
f 161/4/3 160/4/3 159/4/3
f 162/4/3 160/4/3 161/4/3
f 165/4/3 164/4/3 163/4/3
f 166/4/3 164/4/3 165/4/3
f 169/4/3 168/4/3 167/4/3
f 170/4/3 168/4/3 169/4/3
f 173/4/3 172/4/3 171/4/3
f 174/4/3 172/4/3 173/4/3
f 177/4/3 176/4/3 175/4/3
f 178/4/3 176/4/3 177/4/3
f 181/4/3 180/4/3 179/4/3
f 182/4/3 180/4/3 181/4/3
f 185/4/3 184/4/3 183/4/3
f 186/4/3 184/4/3 185/4/3
f 189/4/3 188/4/3 187/4/3
f 190/4/3 188/4/3 189/4/3
f 193/4/3 192/4/3 191/4/3
f 194/4/3 192/4/3 193/4/3
f 197/4/3 196/4/3 195/4/3
f 198/4/3 196/4/3 197/4/3
f 201/4/3 200/4/3 199/4/3
f 202/4/3 200/4/3 201/4/3
f 205/4/3 204/4/3 203/4/3
f 206/4/3 204/4/3 205/4/3
f 209/4/3 208/4/3 207/4/3
f 210/4/3 208/4/3 209/4/3
f 211/3/4 212/3/4 213/3/4
f 213/3/4 212/3/4 214/3/4
f 215/3/4 216/3/4 217/3/4
f 217/3/4 216/3/4 218/3/4
f 219/3/4 220/3/4 221/3/4
f 221/3/4 220/3/4 222/3/4
f 223/3/4 224/3/4 225/3/4
f 225/3/4 224/3/4 226/3/4
f 227/3/4 228/3/4 229/3/4
f 229/3/4 228/3/4 230/3/4
f 231/3/4 232/3/4 233/3/4
f 233/3/4 232/3/4 234/3/4
f 235/3/4 236/3/4 237/3/4
f 237/3/4 236/3/4 238/3/4
f 239/3/4 240/3/4 241/3/4
f 241/3/4 240/3/4 242/3/4
f 243/3/4 244/3/4 245/3/4
f 245/3/4 244/3/4 246/3/4
f 247/3/4 248/3/4 249/3/4
f 249/3/4 248/3/4 250/3/4
f 251/3/4 252/3/4 253/3/4
f 253/3/4 252/3/4 254/3/4
f 255/3/4 256/3/4 257/3/4
f 257/3/4 256/3/4 258/3/4
f 259/3/4 260/3/4 261/3/4
f 261/3/4 260/3/4 262/3/4
f 263/5/4 264/5/4 265/5/4
f 263/5/4 265/5/4 267/5/4
f 265/3/4 266/3/4 267/3/4
f 267/3/4 266/3/4 268/3/4
f 267/1/4 268/1/4 269/1/4
f 268/3/4 266/3/4 269/3/4
f 269/3/4 266/3/4 270/3/4
f 267/1/4 269/1/4 271/1/4
f 269/4/4 270/4/4 271/4/4
f 271/4/4 270/4/4 272/4/4
f 263/5/4 267/5/4 273/5/4
f 267/1/4 271/1/4 274/1/4
f 273/5/4 267/5/4 274/5/4
f 273/2/4 274/2/4 275/2/4
f 274/1/4 271/1/4 276/1/4
f 275/2/4 274/2/4 276/2/4
f 276/1/4 271/1/4 277/1/4
f 280/2/5 279/2/5 278/2/5
f 281/2/5 279/2/5 280/2/5
f 282/4/5 281/4/5 280/4/5
f 283/2/5 279/2/5 281/2/5
f 283/4/5 281/4/5 282/4/5
f 284/2/5 279/2/5 283/2/5
f 285/3/5 283/3/5 282/3/5
f 285/4/5 284/4/5 283/4/5
f 286/2/5 279/2/5 284/2/5
f 286/4/5 284/4/5 285/4/5
f 287/2/5 279/2/5 286/2/5
f 288/3/5 285/3/5 282/3/5
f 288/3/5 286/3/5 285/3/5
f 289/3/5 286/3/5 288/3/5
f 290/4/5 287/4/5 286/4/5
f 290/3/5 286/3/5 289/3/5
f 291/2/5 279/2/5 287/2/5
f 291/4/5 287/4/5 290/4/5
f 292/3/5 288/3/5 282/3/5
f 293/5/5 289/5/5 288/5/5
f 293/3/5 288/3/5 292/3/5
f 294/3/5 290/3/5 289/3/5
f 294/3/5 291/3/5 290/3/5
f 295/3/5 291/3/5 294/3/5
f 296/2/5 279/2/5 291/2/5
f 296/3/5 291/3/5 295/3/5
f 297/2/5 279/2/5 296/2/5
f 298/5/5 289/5/5 293/5/5
f 298/5/5 293/5/5 292/5/5
f 298/3/5 294/3/5 289/3/5
f 299/5/5 295/5/5 294/5/5
f 299/3/5 294/3/5 298/3/5
f 300/3/5 297/3/5 296/3/5
f 300/3/5 296/3/5 295/3/5
f 301/3/5 297/3/5 300/3/5
f 302/2/5 279/2/5 297/2/5
f 302/3/5 297/3/5 301/3/5
f 303/2/5 279/2/5 302/2/5
f 304/5/5 295/5/5 299/5/5
f 304/5/5 299/5/5 298/5/5
f 304/3/5 300/3/5 295/3/5
f 305/5/5 301/5/5 300/5/5
f 305/3/5 300/3/5 304/3/5
f 306/3/5 303/3/5 302/3/5
f 306/3/5 302/3/5 301/3/5
f 307/3/5 303/3/5 306/3/5
f 308/2/5 279/2/5 303/2/5
f 308/3/5 303/3/5 307/3/5
f 309/2/5 279/2/5 308/2/5
f 310/5/5 307/5/5 306/5/5
f 310/3/5 306/3/5 301/3/5
f 311/3/5 309/3/5 308/3/5
f 311/5/5 307/5/5 310/5/5
f 311/3/5 308/3/5 307/3/5
f 312/5/5 301/5/5 305/5/5
f 312/5/5 305/5/5 304/5/5
f 312/3/5 311/3/5 310/3/5
f 312/3/5 310/3/5 301/3/5
f 313/3/5 309/3/5 311/3/5
f 313/3/5 311/3/5 312/3/5
f 314/3/5 309/3/5 313/3/5
f 315/3/5 309/3/5 314/3/5
f 316/2/5 279/2/5 309/2/5
f 316/3/5 309/3/5 315/3/5
f 317/2/5 279/2/5 316/2/5
f 318/5/5 313/5/5 312/5/5
f 318/3/5 314/3/5 313/3/5
f 319/5/5 315/5/5 314/5/5
f 319/3/5 314/3/5 318/3/5
f 320/3/5 317/3/5 316/3/5
f 320/3/5 316/3/5 315/3/5
f 321/3/5 317/3/5 320/3/5
f 322/2/5 279/2/5 317/2/5
f 322/3/5 317/3/5 321/3/5
f 323/2/5 279/2/5 322/2/5
f 324/5/5 315/5/5 319/5/5
f 324/5/5 319/5/5 318/5/5
f 324/3/5 320/3/5 315/3/5
f 325/5/5 321/5/5 320/5/5
f 325/3/5 320/3/5 324/3/5
f 326/3/5 323/3/5 322/3/5
f 326/3/5 322/3/5 321/3/5
f 327/3/5 323/3/5 326/3/5
f 328/2/5 279/2/5 323/2/5
f 328/3/5 323/3/5 327/3/5
f 329/2/5 279/2/5 328/2/5
f 330/2/5 279/2/5 329/2/5
f 331/5/5 327/5/5 326/5/5
f 331/3/5 326/3/5 321/3/5
f 332/3/5 328/3/5 327/3/5
f 332/5/5 327/5/5 331/5/5
f 332/3/5 329/3/5 328/3/5
f 333/5/5 321/5/5 325/5/5
f 333/5/5 325/5/5 324/5/5
f 333/3/5 332/3/5 331/3/5
f 333/3/5 331/3/5 321/3/5
f 334/3/5 329/3/5 332/3/5
f 334/3/5 332/3/5 333/3/5
f 335/3/5 329/3/5 334/3/5
f 336/3/5 329/3/5 335/3/5
f 337/4/5 330/4/5 329/4/5
f 337/3/5 329/3/5 336/3/5
f 338/2/5 279/2/5 330/2/5
f 338/4/5 330/4/5 337/4/5
f 339/2/5 279/2/5 338/2/5
f 340/5/5 336/5/5 335/5/5
f 340/3/5 335/3/5 334/3/5
f 341/3/5 337/3/5 336/3/5
f 341/5/5 336/5/5 340/5/5
f 341/3/5 338/3/5 337/3/5
f 342/3/5 340/3/5 334/3/5
f 342/5/5 334/5/5 333/5/5
f 342/3/5 341/3/5 340/3/5
f 343/3/5 338/3/5 341/3/5
f 343/3/5 341/3/5 342/3/5
f 344/3/5 338/3/5 343/3/5
f 345/3/5 338/3/5 344/3/5
f 346/4/5 339/4/5 338/4/5
f 346/3/5 338/3/5 345/3/5
f 347/2/5 279/2/5 339/2/5
f 347/4/5 339/4/5 346/4/5
f 348/2/5 279/2/5 347/2/5
f 349/5/5 345/5/5 344/5/5
f 349/3/5 344/3/5 343/3/5
f 350/3/5 346/3/5 345/3/5
f 350/5/5 345/5/5 349/5/5
f 350/3/5 347/3/5 346/3/5
f 351/3/5 349/3/5 343/3/5
f 351/5/5 343/5/5 342/5/5
f 351/3/5 350/3/5 349/3/5
f 352/3/5 347/3/5 350/3/5
f 352/3/5 350/3/5 351/3/5
f 353/4/5 348/4/5 347/4/5
f 353/3/5 347/3/5 352/3/5
f 354/2/5 279/2/5 348/2/5
f 354/4/5 348/4/5 353/4/5
f 355/2/5 279/2/5 354/2/5
f 356/5/5 352/5/5 351/5/5
f 357/3/5 353/3/5 352/3/5
f 357/5/5 352/5/5 356/5/5
f 357/3/5 354/3/5 353/3/5
f 358/5/5 356/5/5 351/5/5
f 358/3/5 357/3/5 356/3/5
f 359/3/5 354/3/5 357/3/5
f 359/3/5 357/3/5 358/3/5
f 360/4/5 355/4/5 354/4/5
f 360/3/5 354/3/5 359/3/5
f 361/2/5 279/2/5 355/2/5
f 361/4/5 355/4/5 360/4/5
f 362/2/5 279/2/5 361/2/5
f 363/3/5 360/3/5 359/3/5
f 363/5/5 359/5/5 358/5/5
f 363/3/5 361/3/5 360/3/5
f 364/3/5 361/3/5 363/3/5
f 365/4/5 362/4/5 361/4/5
f 365/3/5 361/3/5 364/3/5
f 366/2/5 279/2/5 362/2/5
f 366/4/5 362/4/5 365/4/5
f 367/2/5 279/2/5 366/2/5
f 368/3/5 365/3/5 364/3/5
f 368/5/5 364/5/5 363/5/5
f 368/3/5 366/3/5 365/3/5
f 369/3/5 366/3/5 368/3/5
f 370/4/5 367/4/5 366/4/5
f 370/3/5 366/3/5 369/3/5
f 371/2/5 279/2/5 367/2/5
f 371/4/5 367/4/5 370/4/5
f 372/2/5 279/2/5 371/2/5
f 373/3/5 370/3/5 369/3/5
f 373/5/5 369/5/5 368/5/5
f 373/3/5 371/3/5 370/3/5
f 374/3/5 371/3/5 373/3/5
f 375/4/5 372/4/5 371/4/5
f 375/3/5 371/3/5 374/3/5
f 376/2/5 279/2/5 372/2/5
f 376/4/5 372/4/5 375/4/5
f 377/2/5 279/2/5 376/2/5
f 378/3/5 375/3/5 374/3/5
f 378/5/5 374/5/5 373/5/5
f 378/3/5 376/3/5 375/3/5
f 379/4/5 377/4/5 376/4/5
f 379/3/5 376/3/5 378/3/5
f 380/2/5 279/2/5 377/2/5
f 380/4/5 377/4/5 379/4/5
f 381/5/5 304/5/5 298/5/5
f 381/5/5 298/5/5 292/5/5
f 381/5/5 380/5/5 379/5/5
f 381/5/5 373/5/5 368/5/5
f 381/5/5 368/5/5 363/5/5
f 381/5/5 363/5/5 358/5/5
f 381/5/5 378/5/5 373/5/5
f 381/5/5 379/5/5 378/5/5
f 381/5/5 358/5/5 351/5/5
f 381/5/5 351/5/5 342/5/5
f 381/5/5 333/5/5 324/5/5
f 381/5/5 342/5/5 333/5/5
f 381/5/5 324/5/5 318/5/5
f 381/5/5 312/5/5 304/5/5
f 381/5/5 318/5/5 312/5/5
f 382/2/5 279/2/5 380/2/5
f 382/5/5 380/5/5 381/5/5
f 383/2/5 279/2/5 382/2/5
f 384/5/6 385/5/6 386/5/6
f 386/5/6 387/5/6 388/5/6
f 388/5/6 389/5/6 390/5/6
f 390/5/6 391/5/6 392/5/6
f 392/5/6 393/5/6 394/5/6
f 394/5/6 395/5/6 396/5/6
f 396/5/6 397/5/6 398/5/6
f 398/5/6 399/5/6 400/5/6
f 400/5/6 401/5/6 402/5/6
f 402/5/6 403/5/6 404/5/6
f 404/5/6 405/5/6 406/5/6
f 406/5/6 407/5/6 408/5/6
f 384/5/6 386/5/6 410/5/6
f 408/5/6 409/5/6 410/5/6
f 406/5/6 408/5/6 410/5/6
f 404/5/6 406/5/6 410/5/6
f 402/5/6 404/5/6 410/5/6
f 400/5/6 402/5/6 410/5/6
f 398/5/6 400/5/6 410/5/6
f 396/5/6 398/5/6 410/5/6
f 394/5/6 396/5/6 410/5/6
f 392/5/6 394/5/6 410/5/6
f 390/5/6 392/5/6 410/5/6
f 388/5/6 390/5/6 410/5/6
f 386/5/6 388/5/6 410/5/6
f 410/5/6 409/5/6 411/5/6
f 412/1/6 413/1/6 414/1/6
f 414/1/6 413/1/6 415/1/6
f 415/1/6 413/1/6 416/1/6
f 416/1/6 413/1/6 417/1/6
f 417/1/6 413/1/6 418/1/6
f 418/1/6 413/1/6 419/1/6
f 419/1/6 413/1/6 420/1/6
f 420/1/6 413/1/6 421/1/6
f 421/1/6 413/1/6 422/1/6
f 422/1/6 413/1/6 423/1/6
f 423/1/6 413/1/6 424/1/6
f 424/1/6 413/1/6 425/1/6
f 425/1/6 413/1/6 426/1/6
f 426/1/6 413/1/6 427/1/6
f 427/1/6 413/1/6 428/1/6
f 428/1/6 413/1/6 429/1/6
f 429/1/6 413/1/6 430/1/6
f 430/1/6 413/1/6 431/1/6
f 431/1/6 413/1/6 432/1/6
f 432/1/6 413/1/6 433/1/6
f 433/1/6 413/1/6 434/1/6
f 434/1/6 413/1/6 435/1/6
f 435/1/6 413/1/6 436/1/6
f 436/1/6 413/1/6 437/1/6
f 437/1/6 413/1/6 438/1/6
f 438/1/6 413/1/6 439/1/6
f 439/1/6 413/1/6 440/1/6
f 440/1/6 413/1/6 441/1/6
f 441/1/6 413/1/6 442/1/6
f 442/1/6 413/1/6 443/1/6
f 443/1/6 413/1/6 444/1/6
f 444/1/6 413/1/6 445/1/6
f 445/1/6 413/1/6 446/1/6
f 446/1/6 413/1/6 447/1/6
f 448/4/6 449/4/6 450/4/6
f 450/4/6 449/4/6 451/4/6
f 450/3/6 451/3/6 453/3/6
f 451/4/6 452/4/6 453/4/6
f 453/4/6 452/4/6 454/4/6
f 450/3/6 453/3/6 456/3/6
f 453/3/6 454/3/6 456/3/6
f 456/3/6 454/3/6 457/3/6
f 454/4/6 455/4/6 458/4/6
f 457/3/6 454/3/6 458/3/6
f 458/4/6 455/4/6 459/4/6
f 457/3/6 458/3/6 461/3/6
f 458/3/6 459/3/6 461/3/6
f 461/3/6 459/3/6 462/3/6
f 459/4/6 460/4/6 463/4/6
f 462/3/6 459/3/6 463/3/6
f 463/4/6 460/4/6 464/4/6
f 462/3/6 463/3/6 466/3/6
f 463/3/6 464/3/6 466/3/6
f 466/3/6 464/3/6 467/3/6
f 464/4/6 465/4/6 468/4/6
f 467/3/6 464/3/6 468/3/6
f 468/4/6 465/4/6 469/4/6
f 467/3/6 468/3/6 471/3/6
f 468/3/6 469/3/6 471/3/6
f 471/3/6 469/3/6 472/3/6
f 469/4/6 470/4/6 473/4/6
f 472/3/6 469/3/6 473/3/6
f 473/4/6 470/4/6 474/4/6
f 472/3/6 473/3/6 476/3/6
f 473/3/6 474/3/6 476/3/6
f 476/3/6 474/3/6 477/3/6
f 474/4/6 475/4/6 478/4/6
f 477/3/6 474/3/6 478/3/6
f 478/4/6 475/4/6 479/4/6
f 477/3/6 478/3/6 481/3/6
f 478/3/6 479/3/6 481/3/6
f 481/3/6 479/3/6 482/3/6
f 479/4/6 480/4/6 483/4/6
f 482/3/6 479/3/6 483/3/6
f 483/4/6 480/4/6 484/4/6
f 482/3/6 483/3/6 486/3/6
f 483/3/6 484/3/6 486/3/6
f 486/3/6 484/3/6 487/3/6
f 484/4/6 485/4/6 488/4/6
f 487/3/6 484/3/6 488/3/6
f 488/4/6 485/4/6 489/4/6
f 487/3/6 488/3/6 491/3/6
f 488/3/6 489/3/6 491/3/6
f 491/3/6 489/3/6 492/3/6
f 489/4/6 490/4/6 493/4/6
f 492/3/6 489/3/6 493/3/6
f 493/4/6 490/4/6 494/4/6
f 492/3/6 493/3/6 496/3/6
f 493/3/6 494/3/6 496/3/6
f 496/3/6 494/3/6 497/3/6
f 494/4/6 495/4/6 498/4/6
f 497/3/6 494/3/6 498/3/6
f 498/4/6 495/4/6 499/4/6
f 497/3/6 498/3/6 501/3/6
f 498/3/6 499/3/6 501/3/6
f 501/3/6 499/3/6 502/3/6
f 499/4/6 500/4/6 503/4/6
f 502/3/6 499/3/6 503/3/6
f 503/4/6 500/4/6 504/4/6
f 502/3/6 503/3/6 506/3/6
f 503/3/6 504/3/6 506/3/6
f 506/3/6 504/3/6 507/3/6
f 504/4/6 505/4/6 508/4/6
f 507/3/6 504/3/6 508/3/6
f 508/4/6 505/4/6 509/4/6
f 507/3/6 508/3/6 511/3/6
f 508/3/6 509/3/6 511/3/6
f 511/3/6 509/3/6 512/3/6
f 509/4/6 510/4/6 513/4/6
f 512/3/6 509/3/6 513/3/6
f 513/4/6 510/4/6 514/4/6
f 512/3/6 513/3/6 516/3/6
f 513/3/6 514/3/6 516/3/6
f 516/3/6 514/3/6 517/3/6
f 514/4/6 515/4/6 518/4/6
f 517/3/6 514/3/6 518/3/6
f 518/4/6 515/4/6 519/4/6
f 517/3/6 518/3/6 521/3/6
f 518/3/6 519/3/6 521/3/6
f 519/4/6 520/4/6 522/4/6
f 521/3/6 519/3/6 522/3/6
f 522/4/6 520/4/6 523/4/6
